<?xml version="1.0" encoding="UTF-8"?>
<svg xmlns="http://www.w3.org/2000/svg" xmlns:xlink="http://www.w3.org/1999/xlink" width="287pt" height="289pt" viewBox="0 0 287 289">
<path fill-rule="nonzero" fill="rgb(23.596191%, 24.916077%, 21.017456%)" fill-opacity="1" d="M 67.453125 226.332031 C 71.519531 226.332031 73.769531 224.753906 73.769531 221.984375 C 73.769531 221.164062 73.527344 220.511719 72.988281 219.972656 C 72.296875 219.28125 71.148438 218.914062 69.65625 218.914062 L 65.808594 218.914062 L 63.816406 226.332031 Z M 62.132812 232.605469 C 62.042969 232.929688 61.828125 233.101562 61.523438 233.101562 C 61.222656 233.101562 60.941406 232.863281 61.050781 232.453125 L 64.8125 218.4375 C 64.898438 218.132812 65.160156 217.875 65.464844 217.875 L 69.679688 217.875 C 71.496094 217.875 72.945312 218.328125 73.855469 219.238281 C 74.523438 219.90625 74.890625 220.816406 74.890625 221.941406 C 74.890625 225.378906 71.992188 227.347656 67.40625 227.347656 L 63.558594 227.347656 Z M 62.132812 232.605469 "/>
<path fill-rule="nonzero" fill="rgb(23.596191%, 24.916077%, 21.017456%)" fill-opacity="1" d="M 88.054688 227.757812 L 86.433594 219 L 80.074219 227.757812 Z M 90.046875 232.234375 C 90.066406 232.324219 90.089844 232.472656 90.089844 232.582031 C 90.089844 232.84375 89.875 233.101562 89.546875 233.101562 C 89.265625 233.101562 89.027344 232.90625 88.964844 232.558594 L 88.273438 228.773438 L 79.339844 228.773438 L 76.507812 232.691406 C 76.332031 232.90625 76.160156 233.101562 75.902344 233.101562 C 75.664062 233.101562 75.425781 232.929688 75.425781 232.605469 C 75.425781 232.496094 75.492188 232.34375 75.554688 232.28125 L 85.785156 218.261719 C 86.003906 217.984375 86.238281 217.722656 86.628906 217.722656 L 86.671875 217.722656 C 87.0625 217.722656 87.277344 217.960938 87.34375 218.261719 Z M 90.046875 232.234375 "/>
<path fill-rule="nonzero" fill="rgb(23.596191%, 24.916077%, 21.017456%)" fill-opacity="1" d="M 95.550781 233.015625 C 95.25 233.015625 94.988281 232.753906 95.074219 232.453125 L 98.839844 218.4375 C 98.925781 218.132812 99.183594 217.875 99.488281 217.875 L 109.070312 217.875 C 109.351562 217.875 109.589844 218.113281 109.589844 218.394531 C 109.589844 218.675781 109.351562 218.914062 109.070312 218.914062 L 99.835938 218.914062 L 98.234375 224.859375 L 106.214844 224.859375 C 106.496094 224.859375 106.730469 225.097656 106.730469 225.378906 C 106.730469 225.660156 106.496094 225.898438 106.214844 225.898438 L 97.953125 225.898438 L 96.332031 231.976562 L 105.390625 231.976562 C 105.671875 231.976562 105.910156 232.214844 105.910156 232.496094 C 105.910156 232.777344 105.671875 233.015625 105.390625 233.015625 Z M 95.550781 233.015625 "/>
<path fill-rule="nonzero" fill="rgb(23.596191%, 24.916077%, 21.017456%)" fill-opacity="1" d="M 121.496094 228.90625 C 121.496094 227.585938 120.632812 226.808594 118.1875 225.855469 C 115.09375 224.644531 113.859375 223.691406 113.859375 221.832031 C 113.859375 219.539062 116.023438 217.660156 119.289062 217.660156 C 121.519531 217.660156 123.117188 218.566406 124.136719 219.519531 C 124.265625 219.648438 124.375 219.777344 124.375 219.992188 C 124.375 220.296875 124.136719 220.535156 123.832031 220.535156 C 123.660156 220.535156 123.507812 220.46875 123.355469 220.320312 C 122.296875 219.261719 120.933594 218.675781 119.183594 218.675781 C 116.585938 218.675781 115.007812 220.144531 115.007812 221.746094 C 115.007812 223.152344 116.132812 223.886719 118.621094 224.839844 C 121.433594 225.898438 122.644531 226.957031 122.644531 228.820312 C 122.644531 231.285156 120.261719 233.230469 117.019531 233.230469 C 114.597656 233.230469 112.714844 232.386719 111.332031 230.785156 C 111.246094 230.679688 111.117188 230.503906 111.117188 230.3125 C 111.117188 230.007812 111.332031 229.769531 111.632812 229.769531 C 111.808594 229.769531 111.957031 229.835938 112.109375 230.03125 C 113.320312 231.4375 114.8125 232.214844 117.128906 232.214844 C 119.613281 232.214844 121.496094 230.808594 121.496094 228.90625 "/>
<path fill-rule="nonzero" fill="rgb(23.596191%, 24.916077%, 21.017456%)" fill-opacity="1" d="M 144.34375 224.859375 C 147.414062 224.859375 149.40625 223.453125 149.40625 221.421875 C 149.40625 219.757812 148.085938 218.914062 145.921875 218.914062 L 141.273438 218.914062 L 139.671875 224.859375 Z M 143.242188 231.976562 C 146.355469 231.976562 148.324219 230.699219 148.324219 228.558594 C 148.324219 226.785156 146.613281 225.898438 144.320312 225.898438 L 139.390625 225.898438 L 137.769531 231.976562 Z M 136.988281 233.015625 C 136.6875 233.015625 136.429688 232.753906 136.511719 232.453125 L 140.277344 218.4375 C 140.363281 218.132812 140.621094 217.875 140.925781 217.875 L 146.03125 217.875 C 148.777344 217.875 150.574219 219.152344 150.574219 221.3125 C 150.574219 223.542969 148.777344 224.96875 146.574219 225.402344 C 148.148438 225.8125 149.46875 226.785156 149.46875 228.558594 C 149.46875 231.15625 147.066406 233.015625 143.175781 233.015625 Z M 136.988281 233.015625 "/>
<path fill-rule="nonzero" fill="rgb(23.596191%, 24.916077%, 21.017456%)" fill-opacity="1" d="M 165.765625 227.757812 L 164.144531 219 L 157.785156 227.757812 Z M 167.757812 232.234375 C 167.777344 232.324219 167.800781 232.472656 167.800781 232.582031 C 167.800781 232.84375 167.585938 233.101562 167.257812 233.101562 C 166.976562 233.101562 166.738281 232.90625 166.675781 232.558594 L 165.984375 228.773438 L 157.050781 228.773438 L 154.21875 232.691406 C 154.042969 232.90625 153.871094 233.101562 153.613281 233.101562 C 153.375 233.101562 153.136719 232.929688 153.136719 232.605469 C 153.136719 232.496094 153.199219 232.34375 153.265625 232.28125 L 163.496094 218.261719 C 163.714844 217.984375 163.949219 217.722656 164.339844 217.722656 L 164.382812 217.722656 C 164.773438 217.722656 164.988281 217.960938 165.054688 218.261719 Z M 167.757812 232.234375 "/>
<path fill-rule="nonzero" fill="rgb(23.596191%, 24.916077%, 21.017456%)" fill-opacity="1" d="M 180.246094 225.726562 C 182.496094 225.726562 184.09375 225.097656 185.003906 224.191406 C 185.675781 223.519531 186.019531 222.71875 186.019531 221.746094 C 186.019531 221.03125 185.78125 220.382812 185.351562 219.953125 C 184.679688 219.28125 183.640625 218.914062 182.085938 218.914062 L 177.542969 218.914062 L 175.703125 225.726562 Z M 173.867188 232.605469 C 173.777344 232.929688 173.5625 233.101562 173.257812 233.101562 C 172.957031 233.101562 172.675781 232.863281 172.785156 232.453125 L 176.546875 218.4375 C 176.632812 218.132812 176.894531 217.875 177.195312 217.875 L 182.128906 217.875 C 183.921875 217.875 185.308594 218.328125 186.195312 219.214844 C 186.820312 219.84375 187.144531 220.707031 187.144531 221.679688 C 187.144531 222.9375 186.648438 223.996094 185.804688 224.839844 C 184.808594 225.832031 183.1875 226.441406 181.347656 226.632812 L 184.203125 232.105469 C 184.3125 232.300781 184.355469 232.453125 184.355469 232.582031 C 184.355469 232.886719 184.09375 233.101562 183.792969 233.101562 C 183.574219 233.101562 183.359375 232.96875 183.253906 232.753906 L 180.140625 226.742188 L 175.445312 226.742188 Z M 173.867188 232.605469 "/>
<path fill-rule="nonzero" fill="rgb(23.596191%, 24.916077%, 21.017456%)" fill-opacity="1" d="M 198.039062 225.726562 C 200.285156 225.726562 201.886719 225.097656 202.796875 224.191406 C 203.46875 223.519531 203.8125 222.71875 203.8125 221.746094 C 203.8125 221.03125 203.574219 220.382812 203.140625 219.953125 C 202.46875 219.28125 201.433594 218.914062 199.875 218.914062 L 195.335938 218.914062 L 193.496094 225.726562 Z M 191.65625 232.605469 C 191.570312 232.929688 191.355469 233.101562 191.050781 233.101562 C 190.75 233.101562 190.46875 232.863281 190.574219 232.453125 L 194.339844 218.4375 C 194.425781 218.132812 194.683594 217.875 194.988281 217.875 L 199.917969 217.875 C 201.714844 217.875 203.097656 218.328125 203.984375 219.214844 C 204.613281 219.84375 204.9375 220.707031 204.9375 221.679688 C 204.9375 222.9375 204.4375 223.996094 203.597656 224.839844 C 202.601562 225.832031 200.976562 226.441406 199.140625 226.632812 L 201.996094 232.105469 C 202.101562 232.300781 202.148438 232.453125 202.148438 232.582031 C 202.148438 232.886719 201.886719 233.101562 201.585938 233.101562 C 201.367188 233.101562 201.152344 232.96875 201.042969 232.753906 L 197.929688 226.742188 L 193.234375 226.742188 Z M 191.65625 232.605469 "/>
<path fill-rule="nonzero" fill="rgb(23.596191%, 24.916077%, 21.017456%)" fill-opacity="1" d="M 208.84375 233.015625 C 208.539062 233.015625 208.28125 232.753906 208.367188 232.453125 L 212.128906 218.4375 C 212.21875 218.132812 212.476562 217.875 212.78125 217.875 L 222.359375 217.875 C 222.640625 217.875 222.878906 218.113281 222.878906 218.394531 C 222.878906 218.675781 222.640625 218.914062 222.359375 218.914062 L 213.125 218.914062 L 211.523438 224.859375 L 219.503906 224.859375 C 219.785156 224.859375 220.023438 225.097656 220.023438 225.378906 C 220.023438 225.660156 219.785156 225.898438 219.503906 225.898438 L 211.242188 225.898438 L 209.621094 231.976562 L 218.683594 231.976562 C 218.964844 231.976562 219.203125 232.214844 219.203125 232.496094 C 219.203125 232.777344 218.964844 233.015625 218.683594 233.015625 Z M 208.84375 233.015625 "/>
<path fill-rule="nonzero" fill="rgb(23.596191%, 24.916077%, 21.017456%)" fill-opacity="1" d="M 229.597656 232.605469 C 229.511719 232.929688 229.292969 233.101562 228.992188 233.101562 C 228.6875 233.101562 228.40625 232.863281 228.515625 232.453125 L 232.148438 218.914062 L 227.457031 218.914062 C 227.175781 218.914062 226.9375 218.675781 226.9375 218.394531 C 226.9375 218.113281 227.175781 217.875 227.457031 217.875 L 238.25 217.875 C 238.53125 217.875 238.765625 218.113281 238.765625 218.394531 C 238.765625 218.675781 238.53125 218.914062 238.25 218.914062 L 233.273438 218.914062 Z M 229.597656 232.605469 "/>
<path fill-rule="nonzero" fill="rgb(23.596191%, 24.916077%, 21.017456%)" fill-opacity="1" d="M 254.914062 224.125 C 254.914062 221.03125 252.773438 218.632812 249.550781 218.632812 C 245.289062 218.632812 242 222.613281 242 226.785156 C 242 229.878906 244.144531 232.277344 247.363281 232.277344 C 251.625 232.277344 254.914062 228.300781 254.914062 224.125 M 240.835938 226.785156 C 240.835938 222.050781 244.726562 217.617188 249.550781 217.617188 C 253.378906 217.617188 256.082031 220.46875 256.082031 224.125 C 256.082031 228.863281 252.1875 233.296875 247.363281 233.296875 C 243.539062 233.296875 240.835938 230.441406 240.835938 226.785156 "/>
<path fill-rule="nonzero" fill="rgb(23.596191%, 24.916077%, 21.017456%)" fill-opacity="1" d="M 57.269531 261.492188 C 59.304688 261.492188 60.679688 260.429688 60.679688 258.800781 L 60.679688 258.769531 C 60.679688 257.03125 59.332031 256.121094 57.359375 256.121094 L 54.261719 256.121094 L 54.261719 261.492188 Z M 53.445312 255.777344 C 53.445312 255.558594 53.636719 255.371094 53.851562 255.371094 L 57.425781 255.371094 C 59.835938 255.371094 61.496094 256.609375 61.496094 258.722656 L 61.496094 258.753906 C 61.496094 261.054688 59.507812 262.246094 57.222656 262.246094 L 54.261719 262.246094 L 54.261719 265.984375 C 54.261719 266.207031 54.074219 266.394531 53.851562 266.394531 C 53.636719 266.394531 53.445312 266.207031 53.445312 265.984375 Z M 53.445312 255.777344 "/>
<path fill-rule="nonzero" fill="rgb(23.596191%, 24.916077%, 21.017456%)" fill-opacity="1" d="M 73.949219 264.953125 C 73.871094 264.890625 73.792969 264.78125 73.792969 264.640625 C 73.792969 264.421875 73.980469 264.234375 74.199219 264.234375 C 74.308594 264.234375 74.402344 264.28125 74.464844 264.328125 C 75.5625 265.3125 76.660156 265.75 78.164062 265.75 C 79.804688 265.75 80.933594 264.828125 80.933594 263.574219 L 80.933594 263.542969 C 80.933594 262.386719 80.324219 261.710938 77.832031 261.210938 C 75.203125 260.679688 74.136719 259.785156 74.136719 258.125 L 74.136719 258.09375 C 74.136719 256.46875 75.625 255.214844 77.660156 255.214844 C 79.132812 255.214844 80.148438 255.589844 81.152344 256.339844 C 81.230469 256.40625 81.324219 256.511719 81.324219 256.671875 C 81.324219 256.890625 81.136719 257.078125 80.917969 257.078125 C 80.824219 257.078125 80.730469 257.046875 80.652344 256.984375 C 79.695312 256.246094 78.742188 255.949219 77.628906 255.949219 C 76.019531 255.949219 74.953125 256.875 74.953125 258.015625 L 74.953125 258.046875 C 74.953125 259.207031 75.546875 259.910156 78.144531 260.445312 C 80.683594 260.960938 81.746094 261.867188 81.746094 263.464844 L 81.746094 263.496094 C 81.746094 265.265625 80.230469 266.488281 78.113281 266.488281 C 76.46875 266.488281 75.1875 265.96875 73.949219 264.953125 "/>
<path fill-rule="nonzero" fill="rgb(23.596191%, 24.916077%, 21.017456%)" fill-opacity="1" d="M 95.03125 255.714844 C 95.03125 255.496094 95.21875 255.308594 95.4375 255.308594 C 95.65625 255.308594 95.84375 255.496094 95.84375 255.714844 L 95.84375 265.984375 C 95.84375 266.203125 95.65625 266.394531 95.4375 266.394531 C 95.21875 266.394531 95.03125 266.203125 95.03125 265.984375 Z M 95.03125 255.714844 "/>
<path fill-rule="nonzero" fill="rgb(23.596191%, 24.916077%, 21.017456%)" fill-opacity="1" d="M 109.222656 260.882812 L 109.222656 260.851562 C 109.222656 257.75 111.542969 255.183594 114.703125 255.183594 C 116.519531 255.183594 117.660156 255.808594 118.726562 256.71875 C 118.804688 256.796875 118.882812 256.90625 118.882812 257.046875 C 118.882812 257.265625 118.679688 257.453125 118.460938 257.453125 C 118.351562 257.453125 118.242188 257.40625 118.179688 257.34375 C 117.269531 256.515625 116.222656 255.917969 114.6875 255.917969 C 112.058594 255.917969 110.070312 258.0625 110.070312 260.820312 L 110.070312 260.851562 C 110.070312 263.621094 112.089844 265.78125 114.703125 265.78125 C 116.191406 265.78125 117.238281 265.25 118.273438 264.265625 C 118.335938 264.199219 118.429688 264.136719 118.554688 264.136719 C 118.757812 264.136719 118.945312 264.324219 118.945312 264.53125 C 118.945312 264.65625 118.882812 264.75 118.820312 264.8125 C 117.710938 265.84375 116.503906 266.519531 114.671875 266.519531 C 111.542969 266.519531 109.222656 264.027344 109.222656 260.882812 "/>
<path fill-rule="nonzero" fill="rgb(23.596191%, 24.916077%, 21.017456%)" fill-opacity="1" d="M 141.136719 260.882812 L 141.136719 260.851562 C 141.136719 258.140625 139.164062 255.917969 136.457031 255.917969 C 133.75 255.917969 131.808594 258.109375 131.808594 260.820312 L 131.808594 260.851562 C 131.808594 263.558594 133.78125 265.78125 136.488281 265.78125 C 139.195312 265.78125 141.136719 263.589844 141.136719 260.882812 M 130.960938 260.882812 L 130.960938 260.851562 C 130.960938 257.859375 133.167969 255.183594 136.488281 255.183594 C 139.808594 255.183594 141.984375 257.828125 141.984375 260.820312 L 141.984375 260.851562 C 141.984375 263.839844 139.777344 266.519531 136.457031 266.519531 C 133.140625 266.519531 130.960938 263.871094 130.960938 260.882812 "/>
<path fill-rule="nonzero" fill="rgb(23.596191%, 24.916077%, 21.017456%)" fill-opacity="1" d="M 155.253906 255.714844 C 155.253906 255.496094 155.445312 255.308594 155.664062 255.308594 C 155.882812 255.308594 156.070312 255.496094 156.070312 255.714844 L 156.070312 265.578125 L 162.191406 265.578125 C 162.394531 265.578125 162.566406 265.75 162.566406 265.953125 C 162.566406 266.15625 162.394531 266.332031 162.191406 266.332031 L 155.664062 266.332031 C 155.445312 266.332031 155.253906 266.140625 155.253906 265.921875 Z M 155.253906 255.714844 "/>
<path fill-rule="nonzero" fill="rgb(23.596191%, 24.916077%, 21.017456%)" fill-opacity="1" d="M 184.507812 260.882812 L 184.507812 260.851562 C 184.507812 258.140625 182.535156 255.917969 179.828125 255.917969 C 177.117188 255.917969 175.179688 258.109375 175.179688 260.820312 L 175.179688 260.851562 C 175.179688 263.558594 177.148438 265.78125 179.859375 265.78125 C 182.566406 265.78125 184.507812 263.589844 184.507812 260.882812 M 174.332031 260.882812 L 174.332031 260.851562 C 174.332031 257.859375 176.539062 255.183594 179.859375 255.183594 C 183.179688 255.183594 185.355469 257.828125 185.355469 260.820312 L 185.355469 260.851562 C 185.355469 263.839844 183.148438 266.519531 179.828125 266.519531 C 176.507812 266.519531 174.332031 263.871094 174.332031 260.882812 "/>
<path fill-rule="nonzero" fill="rgb(23.596191%, 24.916077%, 21.017456%)" fill-opacity="1" d="M 198.140625 260.882812 L 198.140625 260.851562 C 198.140625 257.890625 200.285156 255.183594 203.558594 255.183594 C 205.203125 255.183594 206.28125 255.636719 207.300781 256.402344 C 207.394531 256.484375 207.457031 256.59375 207.457031 256.734375 C 207.457031 256.953125 207.269531 257.140625 207.046875 257.140625 C 206.988281 257.140625 206.894531 257.109375 206.800781 257.03125 C 205.953125 256.371094 205.03125 255.917969 203.511719 255.917969 C 200.847656 255.917969 198.988281 258.171875 198.988281 260.820312 L 198.988281 260.851562 C 198.988281 263.683594 200.753906 265.796875 203.683594 265.796875 C 205.078125 265.796875 206.375 265.21875 207.175781 264.546875 L 207.175781 261.398438 L 203.761719 261.398438 C 203.558594 261.398438 203.386719 261.226562 203.386719 261.023438 C 203.386719 260.820312 203.558594 260.648438 203.761719 260.648438 L 207.550781 260.648438 C 207.769531 260.648438 207.957031 260.835938 207.957031 261.054688 L 207.957031 264.640625 C 207.957031 264.796875 207.847656 264.96875 207.675781 265.109375 C 206.640625 265.90625 205.28125 266.519531 203.652344 266.519531 C 200.191406 266.519531 198.140625 263.964844 198.140625 260.882812 "/>
<path fill-rule="nonzero" fill="rgb(23.596191%, 24.916077%, 21.017456%)" fill-opacity="1" d="M 221.507812 255.714844 C 221.507812 255.496094 221.695312 255.308594 221.914062 255.308594 C 222.132812 255.308594 222.320312 255.496094 222.320312 255.714844 L 222.320312 265.984375 C 222.320312 266.203125 222.132812 266.394531 221.914062 266.394531 C 221.695312 266.394531 221.507812 266.203125 221.507812 265.984375 Z M 221.507812 255.714844 "/>
<path fill-rule="nonzero" fill="rgb(23.596191%, 24.916077%, 21.017456%)" fill-opacity="1" d="M 243.605469 262.527344 L 240.722656 256.183594 L 237.828125 262.527344 Z M 235.496094 265.796875 L 240.175781 255.652344 C 240.285156 255.417969 240.441406 255.261719 240.722656 255.261719 L 240.757812 255.261719 C 241.039062 255.261719 241.195312 255.417969 241.304688 255.652344 L 245.96875 265.765625 C 246.015625 265.859375 246.03125 265.9375 246.03125 266.019531 C 246.03125 266.222656 245.859375 266.394531 245.640625 266.394531 C 245.453125 266.394531 245.3125 266.253906 245.234375 266.078125 L 243.949219 263.261719 L 237.484375 263.261719 L 236.199219 266.097656 C 236.121094 266.285156 235.996094 266.394531 235.808594 266.394531 C 235.605469 266.394531 235.433594 266.234375 235.433594 266.050781 C 235.433594 265.984375 235.449219 265.890625 235.496094 265.796875 "/>
<path fill-rule="nonzero" fill="rgb(36.90033%, 76.856995%, 35.882568%)" fill-opacity="1" d="M 29.96875 242.789062 C 50.082031 242.429688 70.199219 242.167969 90.316406 242.039062 L 150.660156 241.808594 L 211.003906 242.035156 C 231.121094 242.167969 251.234375 242.425781 271.351562 242.789062 C 251.234375 243.148438 231.121094 243.410156 211.003906 243.542969 L 150.660156 243.765625 L 90.316406 243.539062 C 70.199219 243.40625 50.082031 243.148438 29.96875 242.789062 "/>
<path fill-rule="nonzero" fill="rgb(36.90033%, 76.856995%, 35.882568%)" fill-opacity="1" d="M 241.414062 101.894531 C 238.941406 105.953125 235.152344 109.199219 231.152344 111.878906 C 227.117188 114.539062 222.625 116.542969 218.070312 117.570312 C 215.796875 118.066406 213.488281 118.292969 211.320312 118.042969 C 210.242188 117.90625 209.207031 117.679688 208.226562 117.347656 C 207.339844 116.960938 205.507812 116.855469 204.335938 117.492188 C 203.078125 118.078125 202.066406 119.175781 201.636719 120.566406 C 201.417969 121.253906 201.363281 122.007812 201.460938 122.699219 C 201.566406 123.398438 201.523438 123.367188 201.566406 123.734375 L 201.722656 125.367188 C 201.953125 126.453125 201.730469 127.550781 201.660156 128.644531 C 201.664062 129.75 201.308594 130.816406 201.011719 131.882812 C 200.804688 132.980469 200.316406 133.992188 199.835938 135.015625 C 196.058594 143.234375 187.636719 149.480469 178.296875 151.367188 C 175.964844 151.960938 173.570312 152.074219 171.148438 152.273438 C 168.75 152.105469 166.265625 152.21875 163.886719 151.578125 C 159.199219 150.890625 154.820312 148.914062 150.464844 146.78125 L 150.507812 146.304688 C 150.480469 143.539062 150.480469 140.753906 150.382812 137.972656 C 149.910156 130.167969 148.527344 122.265625 145.808594 114.78125 C 145.757812 114.417969 145.703125 114.054688 145.652344 113.691406 C 159.421875 99.164062 177.679688 90.265625 196.824219 86.644531 C 199.273438 86.265625 201.683594 85.515625 204.171875 85.339844 L 211.636719 84.554688 C 217.183594 84.082031 225.78125 84.042969 234.070312 86.019531 C 236.421875 86.777344 238.664062 87.894531 240.433594 89.464844 C 242.207031 91.015625 243.371094 93.132812 243.398438 95.382812 C 243.433594 97.628906 242.613281 99.875 241.414062 101.894531 M 245.6875 95.207031 C 245.386719 92.339844 243.707031 89.773438 241.613281 88.089844 C 239.480469 86.417969 237.054688 85.296875 234.585938 84.476562 C 222.863281 80.59375 203.851562 81.621094 203.851562 81.621094 C 201.246094 81.714844 198.6875 82.03125 196.09375 82.265625 C 185.785156 83.65625 175.734375 87.269531 166.824219 92.648438 C 158.382812 97.738281 150.867188 104.488281 145.507812 112.671875 C 145.300781 111.195312 145.097656 109.71875 144.882812 108.246094 C 144.457031 105.648438 144.191406 103.359375 143.632812 100.507812 L 142.164062 93.152344 C 141.480469 88.222656 140.71875 83.308594 140.742188 78.378906 C 140.558594 68.609375 141.867188 58.65625 146.4375 50.085938 C 150.984375 41.589844 158.125 34.382812 167.054688 29.9375 C 171.449219 27.597656 179.460938 23.726562 188.59375 24.230469 C 191.269531 24.378906 193.347656 25.234375 195.328125 26.585938 C 197.324219 27.933594 198.851562 29.890625 199.855469 32.023438 C 200.824219 34.222656 201.136719 36.5 200.957031 38.953125 C 200.78125 43.875 199.609375 48.660156 197.554688 52.984375 C 195.476562 57.304688 192.632812 61.21875 189.257812 64.710938 C 185.828125 68.148438 181.921875 71.191406 177.707031 73.816406 C 169.273438 79.066406 159.890625 83.066406 150.167969 86.105469 L 150.265625 86.628906 C 160.496094 85.4375 170.574219 82.402344 179.800781 77.382812 C 188.925781 72.433594 197.980469 65.117188 201.632812 54.738281 C 204.039062 47.902344 203.996094 42.433594 203.925781 40.859375 C 203.960938 34.433594 200.871094 27.988281 196.289062 25.148438 C 194.035156 23.648438 191.378906 22.9375 188.707031 22.609375 C 181.894531 21.777344 170.652344 25.152344 165.84375 27.28125 C 156.007812 30.976562 147.382812 38.324219 142.03125 47.675781 C 136.601562 57.03125 134.695312 68.019531 135.054688 78.539062 C 135.234375 83.832031 136.039062 89.035156 137.121094 94.152344 L 139.058594 101.433594 C 133.578125 93.355469 125.996094 86.710938 117.421875 82.207031 C 107.40625 76.847656 96.113281 74.429688 85.039062 74.34375 C 82.269531 74.136719 79.496094 74.4375 76.742188 74.597656 C 74.03125 74.757812 71.105469 75.125 68.457031 76.601562 C 63.324219 79.417969 59.921875 85.277344 60.613281 91.042969 C 61.585938 99.089844 65.578125 104.140625 67.085938 106.460938 C 68.5625 108.796875 69.90625 111.246094 71.523438 113.503906 C 73.210938 115.707031 74.785156 118.023438 76.585938 120.148438 C 83.832031 128.644531 92.835938 135.539062 102.523438 140.917969 C 112.222656 146.273438 122.699219 150.273438 133.59375 151.964844 L 133.703125 151.445312 C 113.207031 144.164062 94.59375 132.601562 79.875 117.167969 C 78.03125 115.246094 76.296875 113.21875 74.488281 111.238281 C 72.734375 109.210938 71.242188 106.984375 69.585938 104.863281 C 67.90625 102.75 63.207031 96.625 62.339844 90.90625 C 61.566406 85.828125 64.6875 80.457031 69.308594 78.199219 C 71.289062 77.230469 74.535156 76.898438 76.835938 76.890625 C 79.527344 76.984375 82.21875 76.851562 84.878906 77.261719 C 95.535156 78.355469 105.90625 81.398438 114.992188 86.597656 C 124.085938 91.796875 131.558594 99.4375 136.722656 108.445312 C 141.949219 117.445312 144.925781 127.757812 146.226562 138.332031 C 146.433594 140.992188 146.734375 143.652344 147.015625 146.328125 L 147.058594 154.402344 C 147.050781 155.753906 147.101562 157.109375 147.054688 158.460938 L 146.777344 162.515625 L 146.273438 170.675781 L 146.796875 170.769531 C 147.398438 168.105469 147.945312 165.417969 148.484375 162.722656 L 149.304688 158.671875 C 149.558594 157.316406 149.601562 155.9375 149.753906 154.570312 L 150.390625 147.554688 C 158.257812 153.484375 168.648438 157.132812 179.03125 155.476562 C 184.324219 154.65625 189.585938 152.867188 194.117188 149.769531 C 198.664062 146.726562 202.503906 142.496094 204.992188 137.425781 C 205.640625 136.167969 206.191406 134.863281 206.496094 133.453125 C 206.875 132.074219 207.289062 130.707031 207.316406 129.246094 C 207.417969 127.808594 207.640625 126.375 207.378906 124.933594 L 207.113281 122.78125 L 207.09375 122.632812 C 208.347656 122.972656 209.601562 123.207031 210.859375 123.3125 C 213.765625 123.53125 216.566406 123.128906 219.226562 122.457031 C 224.558594 121.097656 229.351562 118.53125 233.597656 115.332031 C 237.859375 112.167969 241.5625 108.136719 243.992188 103.269531 C 245.171875 100.839844 245.976562 98.058594 245.6875 95.207031 "/>
<path fill-rule="nonzero" fill="rgb(23.596191%, 24.916077%, 21.017456%)" fill-opacity="1" d="M 48.691406 224.140625 C 55.984375 221.042969 62.839844 217.121094 69.253906 212.375 C 75.667969 207.628906 81.40625 202.210938 86.464844 196.121094 C 77.726562 196.738281 70.003906 197.632812 63.292969 198.804688 C 56.585938 199.972656 50.273438 201.847656 44.355469 204.429688 C 44.527344 208.144531 44.820312 211.753906 45.234375 215.265625 C 45.269531 215.675781 45.132812 215.992188 44.820312 216.21875 C 44.511719 216.441406 44.175781 216.492188 43.8125 216.375 C 43.453125 216.253906 43.238281 215.988281 43.167969 215.574219 C 42.789062 212.339844 42.5 208.933594 42.292969 205.355469 C 28.910156 211.722656 22.441406 218.273438 22.890625 225.015625 C 22.992188 226.597656 23.390625 227.71875 24.078125 228.371094 C 24.765625 229.023438 25.917969 229.4375 27.535156 229.609375 C 28.601562 229.746094 29.789062 229.746094 31.097656 229.609375 C 32.195312 229.472656 33.8125 229.109375 35.945312 228.527344 C 40.246094 227.390625 44.496094 225.929688 48.691406 224.140625 M 97.25 193.335938 C 97.660156 193.300781 97.980469 193.445312 98.203125 193.773438 C 98.425781 194.097656 98.480469 194.441406 98.359375 194.804688 C 98.238281 195.167969 97.972656 195.363281 97.558594 195.398438 C 96.765625 195.433594 95.898438 195.484375 94.953125 195.554688 C 94.007812 195.621094 93.007812 195.691406 91.957031 195.757812 C 90.910156 195.828125 90.023438 195.878906 89.304688 195.914062 C 82.832031 204 75.238281 210.964844 66.519531 216.8125 C 57.800781 222.660156 48.484375 227.03125 38.578125 229.917969 C 27.707031 233.117188 21.582031 231.984375 20.207031 226.515625 C 19.828125 224.964844 19.914062 223.355469 20.464844 221.6875 C 21.015625 220.019531 21.832031 218.488281 22.914062 217.097656 C 24 215.703125 25.316406 214.308594 26.863281 212.917969 C 28.410156 211.523438 29.839844 210.363281 31.148438 209.433594 C 32.453125 208.503906 33.761719 207.644531 35.066406 206.851562 C 37.339844 205.476562 39.714844 204.238281 42.191406 203.136719 C 41.707031 191.820312 42.328125 180.589844 44.046875 169.441406 C 44.117188 169.027344 44.339844 168.753906 44.71875 168.617188 C 45.097656 168.480469 45.441406 168.511719 45.75 168.71875 C 46.058594 168.925781 46.179688 169.234375 46.109375 169.648438 C 44.460938 180.417969 43.839844 191.285156 44.253906 202.261719 C 47.554688 200.886719 51.011719 199.707031 54.625 198.726562 C 58.238281 197.746094 62.023438 196.945312 65.980469 196.328125 C 69.933594 195.707031 73.539062 195.234375 76.789062 194.90625 C 80.039062 194.582031 83.851562 194.261719 88.21875 193.953125 C 88.253906 193.882812 88.355469 193.746094 88.527344 193.539062 C 88.699219 193.335938 88.820312 193.179688 88.890625 193.074219 C 90.09375 191.492188 91.152344 189.988281 92.0625 188.558594 C 92.972656 187.132812 93.871094 185.558594 94.746094 183.839844 C 95.621094 182.117188 96.226562 180.441406 96.550781 178.808594 C 96.878906 177.175781 97.015625 175.523438 96.964844 173.851562 C 96.914062 172.1875 96.464844 170.550781 95.621094 168.953125 C 94.78125 167.351562 93.585938 165.847656 92.035156 164.4375 C 90.179688 162.785156 88.054688 161.417969 85.664062 160.332031 C 83.273438 159.25 80.875 158.484375 78.46875 158.035156 C 76.058594 157.589844 73.519531 157.289062 70.855469 157.136719 C 68.1875 156.980469 65.667969 156.988281 63.292969 157.160156 C 60.578125 157.296875 57.9375 157.53125 55.375 157.855469 C 52.8125 158.183594 50.152344 158.675781 47.402344 159.328125 C 44.648438 159.980469 42.0625 160.765625 39.636719 161.675781 C 37.210938 162.589844 34.828125 163.722656 32.488281 165.082031 C 30.148438 166.441406 28.042969 167.972656 26.167969 169.675781 C 24.289062 171.378906 22.613281 173.371094 21.136719 175.660156 C 19.65625 177.949219 18.503906 180.449219 17.679688 183.167969 C 17.539062 183.546875 17.28125 183.761719 16.902344 183.8125 C 16.527344 183.863281 16.199219 183.742188 15.925781 183.453125 C 15.648438 183.160156 15.582031 182.808594 15.71875 182.394531 C 16.921875 178.542969 18.796875 175.03125 21.34375 171.867188 C 23.886719 168.703125 26.828125 166.070312 30.164062 163.972656 C 33.503906 161.875 37.148438 160.101562 41.105469 158.65625 C 45.0625 157.210938 49.128906 156.199219 53.308594 155.613281 C 57.488281 155.027344 61.609375 154.742188 65.667969 154.761719 C 69.726562 154.777344 73.613281 155.113281 77.328125 155.765625 C 79.015625 156.042969 80.640625 156.410156 82.207031 156.878906 C 83.773438 157.339844 85.363281 157.945312 86.980469 158.683594 C 88.597656 159.421875 90.074219 160.257812 91.417969 161.183594 C 92.757812 162.113281 94.007812 163.222656 95.160156 164.515625 C 96.3125 165.804688 97.25 167.207031 97.972656 168.71875 C 98.625 170.164062 99.054688 171.644531 99.261719 173.15625 C 99.46875 174.671875 99.441406 176.160156 99.183594 177.621094 C 98.925781 179.082031 98.558594 180.503906 98.074219 181.878906 C 97.59375 183.253906 96.9375 184.664062 96.113281 186.109375 C 95.289062 187.554688 94.488281 188.863281 93.714844 190.03125 C 92.941406 191.199219 92.035156 192.4375 91.003906 193.746094 C 91.488281 193.710938 92.449219 193.652344 93.894531 193.566406 C 95.339844 193.480469 96.457031 193.402344 97.25 193.335938 "/>
<path fill-rule="nonzero" fill="rgb(23.596191%, 24.916077%, 21.017456%)" fill-opacity="1" d="M 126.609375 194.777344 C 126.886719 194.46875 127.203125 194.390625 127.5625 194.546875 C 127.925781 194.699219 128.140625 194.957031 128.210938 195.320312 C 128.277344 195.679688 128.175781 196.035156 127.902344 196.378906 C 127.246094 197.03125 126.410156 197.761719 125.398438 198.570312 C 124.382812 199.378906 123.210938 200.230469 121.886719 201.125 C 120.5625 202.019531 119.238281 202.75 117.914062 203.320312 C 116.589844 203.886719 115.335938 204.273438 114.148438 204.480469 C 112.960938 204.6875 111.929688 204.503906 111.050781 203.9375 C 110.171875 203.371094 109.597656 202.382812 109.324219 200.972656 C 109.046875 201.175781 108.710938 201.445312 108.316406 201.769531 C 107.921875 202.097656 107.570312 202.390625 107.257812 202.648438 C 106.949219 202.90625 106.589844 203.179688 106.175781 203.472656 C 105.761719 203.765625 105.382812 204.023438 105.039062 204.246094 C 104.695312 204.472656 104.316406 204.679688 103.90625 204.867188 C 103.492188 205.054688 103.085938 205.195312 102.691406 205.277344 C 102.296875 205.367188 101.882812 205.417969 101.453125 205.433594 C 101.023438 205.453125 100.601562 205.390625 100.191406 205.253906 C 99.398438 205.046875 98.789062 204.636719 98.359375 204.015625 C 97.929688 203.394531 97.710938 202.726562 97.710938 202.003906 C 97.710938 201.28125 97.816406 200.523438 98.023438 199.730469 C 98.433594 198.253906 99.191406 196.980469 100.292969 195.914062 C 101.394531 194.847656 102.632812 194.089844 104.007812 193.644531 C 105.382812 193.195312 106.835938 193.03125 108.371094 193.152344 C 109.898438 193.273438 111.300781 193.710938 112.574219 194.46875 C 113.195312 194.8125 113.277344 195.261719 112.832031 195.8125 C 112.417969 196.359375 111.9375 196.464844 111.386719 196.121094 C 108.773438 194.605469 106.105469 194.65625 103.390625 196.277344 C 102.839844 196.621094 102.332031 196.996094 101.867188 197.410156 C 101.402344 197.824219 100.964844 198.3125 100.550781 198.882812 C 100.136719 199.449219 99.941406 200 99.957031 200.53125 C 99.976562 201.066406 100.207031 201.625 100.652344 202.210938 C 101.132812 202.726562 101.6875 202.984375 102.304688 202.984375 C 102.921875 202.984375 103.5625 202.785156 104.214844 202.390625 C 104.867188 201.996094 105.496094 201.554688 106.097656 201.074219 C 106.699219 200.59375 107.355469 200.058594 108.058594 199.476562 C 108.761719 198.890625 109.324219 198.460938 109.738281 198.183594 C 110.078125 197.976562 110.40625 198.011719 110.714844 198.285156 C 111.027344 198.5625 111.179688 198.890625 111.179688 199.269531 C 111.25 203.121094 113.847656 203.535156 118.972656 200.503906 C 121.722656 198.890625 124.203125 197.046875 126.402344 194.984375 C 126.472656 194.882812 126.542969 194.8125 126.609375 194.777344 "/>
<path fill-rule="nonzero" fill="rgb(23.596191%, 24.916077%, 21.017456%)" fill-opacity="1" d="M 166.753906 194.777344 C 167.03125 194.46875 167.363281 194.347656 167.761719 194.417969 C 168.15625 194.484375 168.433594 194.683594 168.589844 195.011719 C 168.742188 195.335938 168.699219 195.671875 168.457031 196.015625 C 167.597656 197.082031 166.582031 198.183594 165.414062 199.320312 C 164.242188 200.453125 162.867188 201.582031 161.285156 202.699219 C 159.703125 203.816406 158.15625 204.695312 156.640625 205.332031 C 155.128906 205.96875 153.578125 206.207031 151.996094 206.054688 C 150.414062 205.898438 149.058594 205.21875 147.917969 204.015625 C 147.300781 203.328125 146.46875 202.3125 145.417969 200.972656 C 144.367188 199.628906 143.605469 198.683594 143.121094 198.132812 C 142.8125 197.824219 142.519531 197.574219 142.242188 197.386719 C 141.96875 197.195312 141.730469 197.066406 141.523438 196.996094 C 141.316406 196.929688 141.09375 196.945312 140.851562 197.046875 C 140.609375 197.152344 140.414062 197.246094 140.257812 197.332031 C 140.105469 197.417969 139.90625 197.601562 139.664062 197.875 C 139.421875 198.148438 139.25 198.375 139.148438 198.546875 C 139.046875 198.71875 138.855469 199 138.582031 199.398438 C 138.304688 199.792969 138.117188 200.058594 138.015625 200.195312 C 137.839844 200.472656 137.382812 201.339844 136.648438 202.804688 C 135.90625 204.265625 135.152344 205.503906 134.375 206.519531 C 133.601562 207.53125 132.871094 208.089844 132.183594 208.195312 C 131.769531 208.265625 131.441406 208.144531 131.199219 207.832031 C 130.960938 207.492188 130.78125 207.121094 130.660156 206.722656 C 130.539062 206.328125 130.496094 205.847656 130.53125 205.277344 C 130.566406 204.710938 130.601562 204.273438 130.636719 203.964844 C 130.667969 203.652344 130.753906 203.15625 130.894531 202.46875 C 131.03125 201.78125 131.117188 201.382812 131.148438 201.28125 C 131.355469 199.972656 131.753906 198.105469 132.335938 195.679688 C 132.921875 193.253906 133.265625 191.804688 133.367188 191.320312 C 133.472656 190.941406 133.714844 190.683594 134.089844 190.546875 C 134.46875 190.410156 134.8125 190.445312 135.125 190.648438 C 135.433594 190.855469 135.535156 191.167969 135.433594 191.578125 C 135.261719 192.335938 134.96875 193.582031 134.554688 195.320312 C 134.144531 197.058594 133.832031 198.390625 133.628906 199.320312 C 133.214844 201.351562 132.957031 202.761719 132.855469 203.550781 L 132.855469 204.015625 C 133.128906 203.5 133.480469 202.949219 133.910156 202.363281 C 134.339844 201.78125 134.796875 201.160156 135.277344 200.503906 C 135.761719 199.851562 136.105469 199.355469 136.308594 199.007812 C 136.414062 198.871094 136.558594 198.667969 136.75 198.390625 C 136.9375 198.117188 137.101562 197.875 137.238281 197.667969 C 137.375 197.460938 137.539062 197.230469 137.730469 196.972656 C 137.917969 196.714844 138.097656 196.480469 138.269531 196.277344 C 138.441406 196.066406 138.632812 195.863281 138.839844 195.65625 C 139.046875 195.449219 139.257812 195.261719 139.484375 195.085938 C 139.707031 194.917969 139.921875 194.777344 140.128906 194.675781 C 140.679688 194.539062 141.160156 194.46875 141.574219 194.46875 C 141.984375 194.46875 142.433594 194.625 142.914062 194.933594 C 143.398438 195.242188 143.820312 195.570312 144.179688 195.914062 C 144.539062 196.257812 144.9375 196.6875 145.367188 197.203125 C 145.796875 197.71875 146.15625 198.191406 146.449219 198.621094 C 146.742188 199.054688 147.050781 199.507812 147.378906 199.992188 C 147.703125 200.472656 147.988281 200.851562 148.230469 201.125 C 149.433594 202.605469 150.515625 203.472656 151.480469 203.730469 C 152.441406 203.988281 153.820312 203.792969 155.609375 203.136719 C 159.804688 201.589844 163.519531 198.804688 166.753906 194.777344 "/>
<path fill-rule="nonzero" fill="rgb(23.596191%, 24.916077%, 21.017456%)" fill-opacity="1" d="M 176.457031 187.65625 C 176.699219 188.242188 176.523438 188.707031 175.941406 189.050781 L 172.277344 191.21875 C 172.035156 191.355469 171.777344 191.363281 171.503906 191.242188 C 171.226562 191.125 171.039062 190.941406 170.933594 190.703125 C 170.695312 190.152344 170.867188 189.6875 171.453125 189.308594 L 175.117188 187.140625 C 175.355469 187.003906 175.613281 186.996094 175.890625 187.113281 C 176.164062 187.234375 176.351562 187.417969 176.457031 187.65625 M 173 193.589844 C 173.167969 193.214844 173.445312 193.007812 173.824219 192.972656 C 174.203125 192.9375 174.523438 193.058594 174.777344 193.335938 C 175.039062 193.609375 175.097656 193.953125 174.960938 194.363281 C 173.207031 198.769531 172.363281 203.242188 172.433594 207.78125 C 172.433594 208.367188 172.140625 208.660156 171.554688 208.660156 C 170.933594 208.660156 170.558594 208.382812 170.417969 207.835938 C 170.382812 207.730469 170.367188 207.628906 170.367188 207.523438 C 170.296875 202.878906 171.175781 198.234375 173 193.589844 "/>
<path fill-rule="nonzero" fill="rgb(23.596191%, 24.916077%, 21.017456%)" fill-opacity="1" d="M 187.808594 194.3125 C 187.328125 194.347656 186.800781 194.640625 186.238281 195.191406 C 185.667969 195.742188 185.175781 196.34375 184.765625 196.996094 C 185.488281 197.34375 186.363281 196.929688 187.394531 195.757812 C 188.085938 194.96875 188.273438 194.484375 187.964844 194.3125 Z M 204.167969 194.625 C 204.476562 194.3125 204.804688 194.238281 205.148438 194.390625 C 205.492188 194.546875 205.707031 194.804688 205.792969 195.164062 C 205.878906 195.527344 205.785156 195.878906 205.507812 196.222656 C 198.421875 203.480469 192.296875 206.492188 187.136719 205.253906 C 185.3125 204.839844 183.941406 204.042969 183.007812 202.855469 C 182.082031 201.667969 181.710938 200.34375 181.902344 198.882812 C 182.089844 197.417969 182.769531 196.015625 183.941406 194.675781 C 184.867188 193.679688 186.070312 192.867188 187.550781 192.25 C 189.75 191.355469 190.835938 191.90625 190.800781 193.902344 L 190.800781 194.003906 C 190.769531 195.347656 189.960938 196.621094 188.378906 197.824219 C 186.792969 199.027344 185.367188 199.421875 184.09375 199.007812 C 183.957031 200.558594 184.609375 201.710938 186.054688 202.46875 C 187.5 203.222656 189.082031 203.445312 190.800781 203.136719 C 193.246094 202.691406 195.523438 201.738281 197.636719 200.273438 C 199.753906 198.8125 201.929688 196.929688 204.167969 194.625 "/>
<path fill-rule="nonzero" fill="rgb(23.596191%, 24.916077%, 21.017456%)" fill-opacity="1" d="M 234.664062 195.035156 C 234.835938 194.660156 235.121094 194.453125 235.515625 194.417969 C 235.910156 194.382812 236.238281 194.511719 236.496094 194.804688 C 236.753906 195.097656 236.78125 195.433594 236.574219 195.8125 C 236.296875 196.429688 235.964844 197.09375 235.566406 197.796875 C 235.171875 198.503906 234.683594 199.328125 234.097656 200.273438 C 233.511719 201.21875 232.890625 202.097656 232.238281 202.90625 C 231.585938 203.714844 230.886719 204.503906 230.148438 205.28125 C 229.410156 206.054688 228.660156 206.664062 227.90625 207.113281 C 227.148438 207.558594 226.382812 207.851562 225.609375 207.988281 C 224.835938 208.125 224.058594 207.996094 223.285156 207.601562 C 222.511719 207.207031 221.78125 206.542969 221.09375 205.613281 C 220.609375 204.925781 220.265625 204.136719 220.0625 203.242188 C 218.855469 205.582031 217.480469 207.09375 215.933594 207.78125 C 215.105469 208.089844 214.308594 208.167969 213.53125 208.015625 C 212.757812 207.859375 212.054688 207.515625 211.417969 206.980469 C 210.78125 206.449219 210.289062 205.804688 209.945312 205.046875 C 209.535156 204.117188 209.25 203.0625 209.09375 201.875 C 208.941406 200.6875 208.933594 199.328125 209.070312 197.796875 C 209.207031 196.265625 209.347656 195.019531 209.480469 194.054688 C 209.621094 193.09375 209.851562 191.742188 210.179688 190.003906 C 210.503906 188.269531 210.703125 187.210938 210.769531 186.832031 C 211.011719 185.386719 211.289062 183.925781 211.597656 182.445312 C 211.910156 180.964844 212.25 179.425781 212.628906 177.828125 C 213.007812 176.226562 213.34375 174.828125 213.636719 173.621094 C 213.929688 172.417969 214.308594 170.886719 214.773438 169.027344 C 215.234375 167.171875 215.589844 165.746094 215.828125 164.746094 C 215.964844 164.230469 216.308594 164.015625 216.863281 164.101562 C 217.410156 164.1875 217.738281 164.472656 217.84375 164.953125 C 218.046875 166.089844 218.167969 167.15625 218.203125 168.152344 C 218.234375 169.152344 218.167969 170.15625 217.996094 171.171875 C 217.824219 172.1875 217.617188 173.113281 217.378906 173.957031 C 217.136719 174.800781 216.808594 175.859375 216.398438 177.128906 C 216.257812 177.472656 216.019531 177.679688 215.675781 177.75 C 215.332031 177.820312 215.039062 177.75 214.796875 177.542969 C 213.421875 183.425781 212.507812 188.5 212.0625 192.765625 C 211.683594 196.136719 211.476562 198.203125 211.441406 198.957031 C 211.339844 203.777344 212.425781 206.046875 214.695312 205.769531 C 214.933594 205.734375 215.210938 205.664062 215.519531 205.5625 C 217.066406 205.011719 218.566406 202.5 220.007812 198.03125 C 220.183594 196.894531 220.527344 195.347656 221.042969 193.386719 C 221.558594 191.421875 221.867188 190.132812 221.972656 189.515625 C 223.417969 182.117188 224.707031 175.945312 225.839844 170.988281 C 225.941406 170.578125 226.183594 170.3125 226.5625 170.191406 C 226.941406 170.070312 227.285156 170.113281 227.59375 170.320312 C 227.90625 170.527344 228.007812 170.835938 227.90625 171.246094 C 226.597656 176.960938 225.066406 184.371094 223.3125 193.488281 C 223.242188 193.867188 223.140625 194.347656 223.003906 194.933594 C 223.003906 195.070312 222.992188 195.164062 222.976562 195.21875 C 222.960938 195.269531 222.933594 195.347656 222.898438 195.449219 C 222.863281 195.550781 222.847656 195.621094 222.847656 195.65625 C 222.367188 197.753906 222.105469 199.320312 222.074219 200.351562 C 222.003906 202.554688 222.570312 204.101562 223.777344 204.996094 C 224.980469 205.890625 226.511719 205.613281 228.367188 204.167969 C 230.464844 202.382812 232.566406 199.335938 234.664062 195.035156 "/>
<path fill-rule="nonzero" fill="rgb(23.596191%, 24.916077%, 21.017456%)" fill-opacity="1" d="M 266.503906 194.777344 C 266.777344 194.46875 267.097656 194.390625 267.457031 194.546875 C 267.816406 194.699219 268.03125 194.957031 268.105469 195.320312 C 268.171875 195.679688 268.066406 196.035156 267.792969 196.378906 C 267.140625 197.03125 266.304688 197.761719 265.292969 198.570312 C 264.277344 199.378906 263.105469 200.230469 261.78125 201.125 C 260.457031 202.019531 259.132812 202.75 257.808594 203.320312 C 256.484375 203.886719 255.226562 204.273438 254.039062 204.480469 C 252.855469 204.6875 251.820312 204.503906 250.945312 203.9375 C 250.066406 203.371094 249.492188 202.382812 249.21875 200.972656 C 248.941406 201.175781 248.605469 201.445312 248.210938 201.769531 C 247.8125 202.097656 247.460938 202.390625 247.152344 202.648438 C 246.84375 202.90625 246.480469 203.179688 246.070312 203.472656 C 245.65625 203.765625 245.277344 204.023438 244.933594 204.246094 C 244.589844 204.472656 244.210938 204.679688 243.796875 204.867188 C 243.386719 205.054688 242.980469 205.195312 242.585938 205.277344 C 242.191406 205.367188 241.777344 205.417969 241.347656 205.433594 C 240.914062 205.453125 240.496094 205.390625 240.082031 205.253906 C 239.292969 205.046875 238.683594 204.636719 238.25 204.015625 C 237.820312 203.394531 237.605469 202.726562 237.605469 202.003906 C 237.605469 201.28125 237.710938 200.523438 237.914062 199.730469 C 238.328125 198.253906 239.085938 196.980469 240.1875 195.914062 C 241.285156 194.847656 242.523438 194.089844 243.902344 193.644531 C 245.277344 193.195312 246.730469 193.03125 248.261719 193.152344 C 249.792969 193.273438 251.195312 193.710938 252.46875 194.46875 C 253.085938 194.8125 253.171875 195.261719 252.726562 195.8125 C 252.3125 196.359375 251.828125 196.464844 251.28125 196.121094 C 248.664062 194.605469 246 194.65625 243.28125 196.277344 C 242.730469 196.621094 242.222656 196.996094 241.761719 197.410156 C 241.296875 197.824219 240.855469 198.3125 240.445312 198.882812 C 240.03125 199.449219 239.832031 200 239.851562 200.53125 C 239.867188 201.066406 240.101562 201.625 240.546875 202.210938 C 241.027344 202.726562 241.578125 202.984375 242.199219 202.984375 C 242.816406 202.984375 243.453125 202.785156 244.109375 202.390625 C 244.761719 201.996094 245.390625 201.554688 245.992188 201.074219 C 246.59375 200.59375 247.246094 200.058594 247.953125 199.476562 C 248.65625 198.890625 249.21875 198.460938 249.628906 198.183594 C 249.972656 197.976562 250.300781 198.011719 250.609375 198.285156 C 250.917969 198.5625 251.074219 198.890625 251.074219 199.269531 C 251.144531 203.121094 253.742188 203.535156 258.867188 200.503906 C 261.617188 198.890625 264.097656 197.046875 266.296875 194.984375 C 266.367188 194.882812 266.433594 194.8125 266.503906 194.777344 "/>
</svg>
