<?xml version="1.0" encoding="UTF-8"?>
<svg xmlns="http://www.w3.org/2000/svg" xmlns:xlink="http://www.w3.org/1999/xlink" width="495pt" height="167pt" viewBox="0 0 495 167">
<path fill-rule="nonzero" fill="#F5F2EB" fill-opacity="1" d="M 248.824219 105.820312 C 253.457031 105.820312 256.019531 104.019531 256.019531 100.867188 C 256.019531 99.929688 255.75 99.191406 255.132812 98.574219 C 254.34375 97.785156 253.039062 97.367188 251.335938 97.367188 L 246.949219 97.367188 L 244.683594 105.820312 Z M 242.761719 112.964844 C 242.660156 113.335938 242.414062 113.535156 242.070312 113.535156 C 241.726562 113.535156 241.40625 113.261719 241.527344 112.792969 L 245.816406 96.824219 C 245.914062 96.476562 246.210938 96.183594 246.558594 96.183594 L 251.363281 96.183594 C 253.433594 96.183594 255.085938 96.699219 256.117188 97.734375 C 256.882812 98.5 257.300781 99.535156 257.300781 100.816406 C 257.300781 104.734375 254 106.976562 248.777344 106.976562 L 244.386719 106.976562 Z M 242.761719 112.964844 "/>
<path fill-rule="nonzero" fill="#F5F2EB" fill-opacity="1" d="M 272.320312 107.445312 L 270.472656 97.464844 L 263.226562 107.445312 Z M 274.589844 112.550781 C 274.613281 112.644531 274.636719 112.820312 274.636719 112.941406 C 274.636719 113.238281 274.390625 113.535156 274.023438 113.535156 C 273.703125 113.535156 273.429688 113.3125 273.355469 112.917969 L 272.570312 108.605469 L 262.386719 108.605469 L 259.160156 113.066406 C 258.964844 113.3125 258.765625 113.535156 258.46875 113.535156 C 258.199219 113.535156 257.929688 113.335938 257.929688 112.964844 C 257.929688 112.84375 258.003906 112.671875 258.078125 112.597656 L 269.734375 96.625 C 269.980469 96.304688 270.253906 96.007812 270.695312 96.007812 L 270.746094 96.007812 C 271.1875 96.007812 271.433594 96.285156 271.507812 96.625 Z M 274.589844 112.550781 "/>
<path fill-rule="nonzero" fill="#F5F2EB" fill-opacity="1" d="M 280.886719 113.433594 C 280.539062 113.433594 280.242188 113.136719 280.34375 112.792969 L 284.628906 96.824219 C 284.726562 96.476562 285.023438 96.183594 285.371094 96.183594 L 296.285156 96.183594 C 296.605469 96.183594 296.878906 96.453125 296.878906 96.777344 C 296.878906 97.09375 296.605469 97.367188 296.285156 97.367188 L 285.765625 97.367188 L 283.9375 104.144531 L 293.035156 104.144531 C 293.355469 104.144531 293.625 104.414062 293.625 104.734375 C 293.625 105.054688 293.355469 105.328125 293.035156 105.328125 L 283.621094 105.328125 L 281.773438 112.25 L 292.097656 112.25 C 292.417969 112.25 292.6875 112.523438 292.6875 112.84375 C 292.6875 113.164062 292.417969 113.433594 292.097656 113.433594 Z M 280.886719 113.433594 "/>
<path fill-rule="nonzero" fill="#F5F2EB" fill-opacity="1" d="M 310.46875 108.753906 C 310.46875 107.25 309.480469 106.363281 306.699219 105.277344 C 303.171875 103.898438 301.769531 102.8125 301.769531 100.691406 C 301.769531 98.082031 304.230469 95.9375 307.953125 95.9375 C 310.492188 95.9375 312.316406 96.972656 313.472656 98.058594 C 313.625 98.203125 313.746094 98.351562 313.746094 98.597656 C 313.746094 98.941406 313.472656 99.214844 313.128906 99.214844 C 312.933594 99.214844 312.761719 99.140625 312.589844 98.96875 C 311.378906 97.761719 309.828125 97.09375 307.832031 97.09375 C 304.875 97.09375 303.074219 98.769531 303.074219 100.59375 C 303.074219 102.195312 304.355469 103.035156 307.191406 104.117188 C 310.394531 105.328125 311.773438 106.535156 311.773438 108.652344 C 311.773438 111.464844 309.0625 113.683594 305.367188 113.683594 C 302.605469 113.683594 300.460938 112.722656 298.882812 110.898438 C 298.785156 110.773438 298.640625 110.578125 298.640625 110.355469 C 298.640625 110.011719 298.882812 109.738281 299.230469 109.738281 C 299.425781 109.738281 299.601562 109.8125 299.773438 110.03125 C 301.152344 111.636719 302.851562 112.523438 305.488281 112.523438 C 308.324219 112.523438 310.46875 110.921875 310.46875 108.753906 "/>
<path fill-rule="nonzero" fill="#F5F2EB" fill-opacity="1" d="M 336.53125 104.144531 C 340.03125 104.144531 342.296875 102.539062 342.296875 100.226562 C 342.296875 98.328125 340.796875 97.367188 338.332031 97.367188 L 333.03125 97.367188 L 331.207031 104.144531 Z M 335.273438 112.25 C 338.824219 112.25 341.066406 110.796875 341.066406 108.359375 C 341.066406 106.335938 339.121094 105.328125 336.507812 105.328125 L 330.886719 105.328125 L 329.039062 112.25 Z M 328.152344 113.4375 C 327.808594 113.4375 327.511719 113.136719 327.609375 112.792969 L 331.898438 96.824219 C 331.996094 96.480469 332.292969 96.183594 332.636719 96.183594 L 338.457031 96.183594 C 341.585938 96.183594 343.628906 97.636719 343.628906 100.101562 C 343.628906 102.640625 341.585938 104.269531 339.070312 104.757812 C 340.871094 105.230469 342.371094 106.335938 342.371094 108.359375 C 342.371094 111.316406 339.636719 113.4375 335.199219 113.4375 Z M 328.152344 113.4375 "/>
<path fill-rule="nonzero" fill="#F5F2EB" fill-opacity="1" d="M 360.96875 107.445312 L 359.121094 97.464844 L 351.871094 107.445312 Z M 363.234375 112.550781 C 363.257812 112.644531 363.285156 112.820312 363.285156 112.941406 C 363.285156 113.238281 363.039062 113.535156 362.667969 113.535156 C 362.347656 113.535156 362.074219 113.3125 362.003906 112.917969 L 361.214844 108.605469 L 351.035156 108.605469 L 347.808594 113.066406 C 347.609375 113.3125 347.414062 113.535156 347.117188 113.535156 C 346.847656 113.535156 346.574219 113.335938 346.574219 112.964844 C 346.574219 112.84375 346.648438 112.671875 346.722656 112.597656 L 358.378906 96.625 C 358.628906 96.304688 358.898438 96.007812 359.339844 96.007812 L 359.390625 96.007812 C 359.832031 96.007812 360.082031 96.285156 360.15625 96.625 Z M 363.234375 112.550781 "/>
<path fill-rule="nonzero" fill="#F5F2EB" fill-opacity="1" d="M 377.488281 105.128906 C 380.054688 105.128906 381.875 104.414062 382.914062 103.382812 C 383.675781 102.613281 384.070312 101.703125 384.070312 100.59375 C 384.070312 99.78125 383.800781 99.039062 383.308594 98.550781 C 382.542969 97.785156 381.359375 97.363281 379.585938 97.363281 L 374.410156 97.363281 L 372.316406 105.128906 Z M 370.21875 112.964844 C 370.121094 113.335938 369.875 113.53125 369.53125 113.53125 C 369.1875 113.53125 368.863281 113.261719 368.988281 112.792969 L 373.277344 96.824219 C 373.375 96.480469 373.671875 96.183594 374.015625 96.183594 L 379.632812 96.183594 C 381.679688 96.183594 383.257812 96.699219 384.269531 97.710938 C 384.984375 98.425781 385.355469 99.410156 385.355469 100.519531 C 385.355469 101.949219 384.785156 103.15625 383.824219 104.117188 C 382.691406 105.25 380.84375 105.941406 378.746094 106.164062 L 382 112.398438 C 382.125 112.621094 382.171875 112.792969 382.171875 112.941406 C 382.171875 113.289062 381.875 113.53125 381.535156 113.53125 C 381.285156 113.53125 381.039062 113.386719 380.914062 113.140625 L 377.367188 106.289062 L 372.019531 106.289062 Z M 370.21875 112.964844 "/>
<path fill-rule="nonzero" fill="#F5F2EB" fill-opacity="1" d="M 397.78125 105.128906 C 400.347656 105.128906 402.171875 104.414062 403.207031 103.382812 C 403.96875 102.613281 404.363281 101.703125 404.363281 100.59375 C 404.363281 99.78125 404.09375 99.039062 403.601562 98.550781 C 402.835938 97.785156 401.652344 97.363281 399.878906 97.363281 L 394.703125 97.363281 L 392.605469 105.128906 Z M 390.511719 112.964844 C 390.414062 113.335938 390.167969 113.53125 389.824219 113.53125 C 389.476562 113.53125 389.15625 113.261719 389.28125 112.792969 L 393.570312 96.824219 C 393.667969 96.480469 393.964844 96.183594 394.308594 96.183594 L 399.925781 96.183594 C 401.972656 96.183594 403.550781 96.699219 404.5625 97.710938 C 405.273438 98.425781 405.644531 99.410156 405.644531 100.519531 C 405.644531 101.949219 405.078125 103.15625 404.117188 104.117188 C 402.984375 105.25 401.136719 105.941406 399.039062 106.164062 L 402.292969 112.398438 C 402.417969 112.621094 402.464844 112.792969 402.464844 112.941406 C 402.464844 113.289062 402.171875 113.53125 401.824219 113.53125 C 401.578125 113.53125 401.332031 113.386719 401.207031 113.140625 L 397.660156 106.289062 L 392.3125 106.289062 Z M 390.511719 112.964844 "/>
<path fill-rule="nonzero" fill="#F5F2EB" fill-opacity="1" d="M 410.117188 113.433594 C 409.773438 113.433594 409.476562 113.136719 409.574219 112.792969 L 413.863281 96.824219 C 413.960938 96.476562 414.257812 96.183594 414.605469 96.183594 L 425.523438 96.183594 C 425.839844 96.183594 426.113281 96.453125 426.113281 96.777344 C 426.113281 97.09375 425.839844 97.367188 425.523438 97.367188 L 415 97.367188 L 413.175781 104.144531 L 422.269531 104.144531 C 422.589844 104.144531 422.859375 104.414062 422.859375 104.734375 C 422.859375 105.054688 422.589844 105.328125 422.269531 105.328125 L 412.855469 105.328125 L 411.007812 112.25 L 421.332031 112.25 C 421.652344 112.25 421.925781 112.523438 421.925781 112.84375 C 421.925781 113.164062 421.652344 113.433594 421.332031 113.433594 Z M 410.117188 113.433594 "/>
<path fill-rule="nonzero" fill="#F5F2EB" fill-opacity="1" d="M 433.785156 112.964844 C 433.6875 113.335938 433.441406 113.53125 433.09375 113.53125 C 432.75 113.53125 432.429688 113.261719 432.554688 112.792969 L 436.695312 97.363281 L 431.34375 97.363281 C 431.027344 97.363281 430.753906 97.09375 430.753906 96.777344 C 430.753906 96.453125 431.027344 96.183594 431.34375 96.183594 L 443.644531 96.183594 C 443.964844 96.183594 444.234375 96.453125 444.234375 96.777344 C 444.234375 97.09375 443.964844 97.363281 443.644531 97.363281 L 437.972656 97.363281 Z M 433.785156 112.964844 "/>
<path fill-rule="nonzero" fill="#F5F2EB" fill-opacity="1" d="M 462.65625 103.304688 C 462.65625 99.78125 460.214844 97.046875 456.542969 97.046875 C 451.6875 97.046875 447.941406 101.578125 447.941406 106.335938 C 447.941406 109.859375 450.382812 112.597656 454.054688 112.597656 C 458.910156 112.597656 462.65625 108.0625 462.65625 103.304688 M 446.609375 106.335938 C 446.609375 100.941406 451.046875 95.886719 456.542969 95.886719 C 460.90625 95.886719 463.988281 99.140625 463.988281 103.304688 C 463.988281 108.703125 459.546875 113.753906 454.054688 113.753906 C 449.691406 113.753906 446.609375 110.5 446.609375 106.335938 "/>
<path fill-rule="nonzero" fill="#F5F2EB" fill-opacity="1" d="M 239.609375 145.921875 C 241.933594 145.921875 243.503906 144.707031 243.503906 142.851562 L 243.503906 142.816406 C 243.503906 140.832031 241.96875 139.792969 239.71875 139.792969 L 236.179688 139.792969 L 236.179688 145.921875 Z M 235.25 139.402344 C 235.25 139.152344 235.464844 138.9375 235.714844 138.9375 L 239.789062 138.9375 C 242.542969 138.9375 244.433594 140.347656 244.433594 142.761719 L 244.433594 142.796875 C 244.433594 145.421875 242.164062 146.78125 239.554688 146.78125 L 236.179688 146.78125 L 236.179688 151.050781 C 236.179688 151.300781 235.964844 151.515625 235.714844 151.515625 C 235.464844 151.515625 235.25 151.300781 235.25 151.050781 Z M 235.25 139.402344 "/>
<path fill-rule="nonzero" fill="#F5F2EB" fill-opacity="1" d="M 258.640625 149.871094 C 258.550781 149.800781 258.460938 149.675781 258.460938 149.515625 C 258.460938 149.265625 258.675781 149.050781 258.925781 149.050781 C 259.050781 149.050781 259.15625 149.101562 259.230469 149.15625 C 260.480469 150.28125 261.730469 150.78125 263.445312 150.78125 C 265.320312 150.78125 266.605469 149.726562 266.605469 148.296875 L 266.605469 148.261719 C 266.605469 146.941406 265.910156 146.171875 263.070312 145.601562 C 260.070312 144.992188 258.855469 143.976562 258.855469 142.082031 L 258.855469 142.046875 C 258.855469 140.1875 260.550781 138.757812 262.875 138.757812 C 264.550781 138.757812 265.714844 139.1875 266.855469 140.046875 C 266.945312 140.117188 267.050781 140.242188 267.050781 140.421875 C 267.050781 140.671875 266.835938 140.886719 266.589844 140.886719 C 266.480469 140.886719 266.375 140.847656 266.285156 140.777344 C 265.195312 139.9375 264.105469 139.597656 262.835938 139.597656 C 260.996094 139.597656 259.78125 140.652344 259.78125 141.957031 L 259.78125 141.992188 C 259.78125 143.3125 260.460938 144.117188 263.425781 144.726562 C 266.320312 145.316406 267.535156 146.351562 267.535156 148.175781 L 267.535156 148.210938 C 267.535156 150.226562 265.800781 151.625 263.390625 151.625 C 261.515625 151.625 260.050781 151.03125 258.640625 149.871094 "/>
<path fill-rule="nonzero" fill="#F5F2EB" fill-opacity="1" d="M 282.6875 139.332031 C 282.6875 139.082031 282.902344 138.867188 283.152344 138.867188 C 283.402344 138.867188 283.617188 139.082031 283.617188 139.332031 L 283.617188 151.050781 C 283.617188 151.300781 283.402344 151.515625 283.152344 151.515625 C 282.902344 151.515625 282.6875 151.300781 282.6875 151.050781 Z M 282.6875 139.332031 "/>
<path fill-rule="nonzero" fill="#F5F2EB" fill-opacity="1" d="M 298.878906 145.226562 L 298.878906 145.191406 C 298.878906 141.652344 301.519531 138.722656 305.128906 138.722656 C 307.203125 138.722656 308.507812 139.4375 309.71875 140.472656 C 309.8125 140.5625 309.898438 140.6875 309.898438 140.847656 C 309.898438 141.097656 309.667969 141.316406 309.417969 141.316406 C 309.292969 141.316406 309.167969 141.261719 309.09375 141.1875 C 308.058594 140.242188 306.863281 139.566406 305.113281 139.566406 C 302.113281 139.566406 299.839844 142.011719 299.839844 145.15625 L 299.839844 145.191406 C 299.839844 148.351562 302.144531 150.816406 305.128906 150.816406 C 306.828125 150.816406 308.023438 150.210938 309.203125 149.082031 C 309.273438 149.011719 309.382812 148.941406 309.523438 148.941406 C 309.757812 148.941406 309.96875 149.15625 309.96875 149.390625 C 309.96875 149.53125 309.898438 149.640625 309.828125 149.707031 C 308.558594 150.890625 307.183594 151.660156 305.09375 151.660156 C 301.519531 151.660156 298.878906 148.820312 298.878906 145.226562 "/>
<path fill-rule="nonzero" fill="#F5F2EB" fill-opacity="1" d="M 335.285156 145.226562 L 335.285156 145.191406 C 335.285156 142.101562 333.039062 139.566406 329.945312 139.566406 C 326.855469 139.566406 324.640625 142.0625 324.640625 145.15625 L 324.640625 145.191406 C 324.640625 148.28125 326.890625 150.816406 329.984375 150.816406 C 333.074219 150.816406 335.285156 148.316406 335.285156 145.226562 M 323.675781 145.226562 L 323.675781 145.191406 C 323.675781 141.777344 326.195312 138.722656 329.984375 138.722656 C 333.769531 138.722656 336.253906 141.742188 336.253906 145.15625 L 336.253906 145.191406 C 336.253906 148.601562 333.734375 151.660156 329.945312 151.660156 C 326.160156 151.660156 323.675781 148.636719 323.675781 145.226562 "/>
<path fill-rule="nonzero" fill="#F5F2EB" fill-opacity="1" d="M 351.386719 139.332031 C 351.386719 139.082031 351.601562 138.867188 351.851562 138.867188 C 352.101562 138.867188 352.316406 139.082031 352.316406 139.332031 L 352.316406 150.585938 L 359.300781 150.585938 C 359.535156 150.585938 359.730469 150.78125 359.730469 151.015625 C 359.730469 151.246094 359.535156 151.441406 359.300781 151.441406 L 351.851562 151.441406 C 351.601562 151.441406 351.386719 151.226562 351.386719 150.976562 Z M 351.386719 139.332031 "/>
<path fill-rule="nonzero" fill="#F5F2EB" fill-opacity="1" d="M 384.761719 145.226562 L 384.761719 145.191406 C 384.761719 142.101562 382.511719 139.566406 379.417969 139.566406 C 376.328125 139.566406 374.113281 142.0625 374.113281 145.15625 L 374.113281 145.191406 C 374.113281 148.28125 376.363281 150.816406 379.457031 150.816406 C 382.546875 150.816406 384.761719 148.316406 384.761719 145.226562 M 373.148438 145.226562 L 373.148438 145.191406 C 373.148438 141.777344 375.667969 138.722656 379.457031 138.722656 C 383.242188 138.722656 385.726562 141.742188 385.726562 145.15625 L 385.726562 145.191406 C 385.726562 148.601562 383.207031 151.660156 379.417969 151.660156 C 375.632812 151.660156 373.148438 148.636719 373.148438 145.226562 "/>
<path fill-rule="nonzero" fill="#F5F2EB" fill-opacity="1" d="M 400.308594 145.226562 L 400.308594 145.191406 C 400.308594 141.8125 402.753906 138.722656 406.488281 138.722656 C 408.363281 138.722656 409.597656 139.242188 410.757812 140.117188 C 410.867188 140.207031 410.9375 140.332031 410.9375 140.492188 C 410.9375 140.742188 410.722656 140.957031 410.472656 140.957031 C 410.402344 140.957031 410.292969 140.917969 410.1875 140.832031 C 409.222656 140.082031 408.167969 139.566406 406.433594 139.566406 C 403.398438 139.566406 401.273438 142.136719 401.273438 145.15625 L 401.273438 145.191406 C 401.273438 148.421875 403.289062 150.835938 406.628906 150.835938 C 408.222656 150.835938 409.703125 150.171875 410.617188 149.40625 L 410.617188 145.816406 L 406.71875 145.816406 C 406.488281 145.816406 406.292969 145.621094 406.292969 145.386719 C 406.292969 145.15625 406.488281 144.957031 406.71875 144.957031 L 411.042969 144.957031 C 411.292969 144.957031 411.507812 145.171875 411.507812 145.421875 L 411.507812 149.511719 C 411.507812 149.695312 411.382812 149.886719 411.1875 150.050781 C 410.007812 150.960938 408.453125 151.660156 406.597656 151.660156 C 402.648438 151.660156 400.308594 148.746094 400.308594 145.226562 "/>
<path fill-rule="nonzero" fill="#F5F2EB" fill-opacity="1" d="M 426.964844 139.332031 C 426.964844 139.082031 427.179688 138.867188 427.429688 138.867188 C 427.679688 138.867188 427.894531 139.082031 427.894531 139.332031 L 427.894531 151.050781 C 427.894531 151.300781 427.679688 151.515625 427.429688 151.515625 C 427.179688 151.515625 426.964844 151.300781 426.964844 151.050781 Z M 426.964844 139.332031 "/>
<path fill-rule="nonzero" fill="#F5F2EB" fill-opacity="1" d="M 452.171875 147.101562 L 448.886719 139.867188 L 445.582031 147.101562 Z M 442.917969 150.835938 L 448.261719 139.257812 C 448.386719 138.992188 448.566406 138.8125 448.886719 138.8125 L 448.921875 138.8125 C 449.246094 138.8125 449.421875 138.992188 449.546875 139.257812 L 454.871094 150.796875 C 454.925781 150.90625 454.941406 150.996094 454.941406 151.085938 C 454.941406 151.316406 454.746094 151.515625 454.496094 151.515625 C 454.28125 151.515625 454.121094 151.355469 454.03125 151.160156 L 452.566406 147.941406 L 445.1875 147.941406 L 443.722656 151.175781 C 443.636719 151.390625 443.492188 151.515625 443.277344 151.515625 C 443.046875 151.515625 442.847656 151.335938 442.847656 151.121094 C 442.847656 151.050781 442.867188 150.945312 442.917969 150.835938 "/>
<path fill-rule="nonzero" fill="#F5F2EB" fill-opacity="1" d="M 206.074219 124.585938 C 229.019531 124.175781 251.964844 123.878906 274.910156 123.730469 L 343.75 123.46875 L 412.585938 123.726562 C 435.53125 123.875 458.476562 124.171875 481.421875 124.585938 C 458.476562 125 435.53125 125.292969 412.585938 125.445312 L 343.75 125.699219 L 274.910156 125.441406 C 251.964844 125.292969 229.019531 124.996094 206.074219 124.585938 "/>
<path fill-rule="nonzero" fill="#F5F2EB" fill-opacity="1" d="M 96.808594 73.683594 C 105.839844 70.863281 114.554688 67.148438 122.390625 62.265625 C 126.308594 59.828125 129.933594 57 133.121094 53.808594 C 136.257812 50.5625 138.898438 46.929688 140.828125 42.914062 C 142.738281 38.898438 143.828125 34.449219 143.992188 29.875 C 144.160156 27.597656 143.867188 25.484375 142.96875 23.441406 C 142.035156 21.460938 140.617188 19.640625 138.761719 18.386719 C 136.921875 17.132812 134.753906 16.304688 132.507812 16.199219 C 130.308594 16.058594 127.925781 16.628906 125.632812 16.9375 C 121.0625 17.902344 116.574219 19.328125 112.496094 21.5 C 104.195312 25.628906 97.566406 32.328125 93.339844 40.21875 C 89.09375 48.183594 87.878906 57.429688 88.046875 66.507812 C 88.027344 71.085938 88.734375 75.652344 89.367188 80.234375 L 90.734375 87.066406 C 91.253906 89.714844 91.5 91.839844 91.898438 94.253906 C 93.25 103.652344 94.519531 113.066406 95.457031 122.539062 L 94.96875 122.628906 C 92.425781 113.457031 90.214844 104.21875 88.085938 94.964844 C 87.574219 92.722656 87.074219 90.160156 86.554688 88.183594 L 84.683594 81.160156 C 83.679688 76.410156 82.933594 71.574219 82.765625 66.65625 C 82.433594 56.882812 84.199219 46.675781 89.246094 37.984375 C 94.21875 29.292969 102.230469 22.464844 111.367188 19.03125 C 115.839844 17.054688 120.632812 16.128906 125.347656 15.277344 C 127.761719 15.101562 130.058594 14.496094 132.609375 14.695312 C 135.105469 14.871094 137.5625 15.660156 139.65625 17.050781 C 143.910156 19.691406 146.71875 24.753906 146.753906 29.839844 C 147.0625 34.742188 146.410156 39.816406 144.621094 44.542969 C 140.828125 54.035156 132.8125 60.984375 124.335938 65.582031 C 115.765625 70.246094 106.402344 73.066406 96.894531 74.171875 Z M 96.808594 73.683594 "/>
<path fill-rule="nonzero" fill="#F5F2EB" fill-opacity="1" d="M 81.40625 134.875 C 71.285156 133.304688 61.554688 129.589844 52.539062 124.609375 C 43.542969 119.609375 35.175781 113.207031 28.441406 105.3125 C 26.769531 103.339844 25.308594 101.1875 23.742188 99.140625 C 22.238281 97.042969 20.988281 94.769531 19.617188 92.597656 C 18.21875 90.441406 17.269531 88.019531 16.082031 85.753906 C 14.886719 83.574219 13.730469 80.976562 13.605469 78.273438 C 13.261719 72.890625 16.121094 67.472656 20.890625 64.855469 C 23.203125 63.476562 26.113281 63.027344 28.589844 62.996094 C 31.148438 62.882812 33.722656 62.566406 36.296875 62.757812 C 46.585938 62.839844 57.078125 65.085938 66.378906 70.0625 C 75.691406 74.953125 83.757812 82.539062 88.902344 91.820312 C 94.109375 101.09375 96.386719 111.585938 97.003906 121.875 C 97.097656 124.460938 97.097656 127.046875 97.121094 129.617188 L 96.421875 137.292969 C 96.277344 138.566406 96.242188 139.847656 96.003906 141.105469 L 95.242188 144.867188 C 94.738281 147.371094 94.234375 149.867188 93.675781 152.34375 L 93.1875 152.257812 L 93.65625 144.675781 L 93.910156 140.910156 C 93.957031 139.652344 93.910156 138.394531 93.917969 137.140625 L 93.878906 129.636719 C 93.617188 127.148438 93.335938 124.679688 93.144531 122.207031 C 91.9375 112.382812 89.167969 102.804688 84.3125 94.441406 C 79.515625 86.070312 72.574219 78.972656 64.125 74.144531 C 55.683594 69.3125 46.050781 66.484375 36.148438 65.46875 C 33.675781 65.085938 31.175781 65.210938 28.675781 65.125 C 26.109375 64.953125 23.820312 65.203125 21.683594 66.339844 C 17.386719 68.4375 14.75 73.394531 15.207031 78.148438 C 15.429688 80.554688 16.503906 82.644531 17.886719 84.804688 C 19.257812 86.90625 20.378906 89.148438 21.941406 91.113281 C 23.476562 93.085938 24.867188 95.152344 26.496094 97.035156 C 28.175781 98.875 29.785156 100.761719 31.5 102.546875 C 45.171875 116.882812 62.46875 127.628906 81.507812 134.390625 Z M 81.40625 134.875 "/>
<path fill-rule="nonzero" fill="#F5F2EB" fill-opacity="1" d="M 91.667969 99.585938 C 96.683594 91.421875 104.015625 84.746094 112.28125 79.765625 C 120.5625 74.765625 129.894531 71.410156 139.476562 70.117188 C 141.882812 69.898438 144.269531 69.476562 146.683594 69.519531 L 153.886719 69.484375 L 161.035156 70.105469 C 163.417969 70.203125 165.765625 70.628906 168.113281 71 C 170.496094 71.410156 172.75 71.515625 175.234375 72.175781 C 177.550781 72.871094 179.785156 73.976562 181.765625 75.53125 C 183.710938 77.09375 185.269531 79.476562 185.550781 82.140625 C 185.816406 84.792969 185.074219 87.371094 183.976562 89.632812 C 181.71875 94.152344 178.277344 97.898438 174.316406 100.839844 C 170.371094 103.8125 165.917969 106.195312 160.964844 107.457031 C 158.496094 108.082031 155.890625 108.457031 153.191406 108.253906 C 151.839844 108.136719 150.488281 107.898438 149.144531 107.488281 C 148.863281 107.4375 149.292969 107.527344 149.316406 107.457031 C 149.417969 107.421875 149.503906 107.351562 149.570312 107.195312 C 149.597656 107.121094 149.609375 107.027344 149.605469 106.964844 L 149.710938 107.761719 L 149.957031 109.761719 C 150.199219 111.097656 149.996094 112.433594 149.898438 113.769531 C 149.875 115.121094 149.492188 116.394531 149.136719 117.675781 C 148.855469 118.984375 148.34375 120.195312 147.742188 121.367188 C 145.429688 126.074219 141.859375 130.007812 137.640625 132.835938 C 133.429688 135.710938 128.539062 137.371094 123.621094 138.136719 C 113.640625 139.730469 103.644531 136.054688 96.253906 130.203125 L 96.53125 129.792969 C 100.761719 131.871094 105 133.847656 109.554688 134.515625 C 111.761719 135.109375 114.070312 135.003906 116.296875 135.160156 C 118.546875 134.972656 120.773438 134.867188 122.941406 134.320312 C 131.617188 132.566406 139.441406 126.761719 142.953125 119.128906 C 143.394531 118.179688 143.851562 117.234375 144.042969 116.21875 C 144.320312 115.222656 144.648438 114.234375 144.644531 113.207031 C 144.710938 112.191406 144.917969 111.171875 144.703125 110.164062 L 144.558594 108.644531 C 144.519531 108.304688 144.558594 108.332031 144.460938 107.683594 C 144.367188 107.039062 144.417969 106.34375 144.625 105.703125 C 145.023438 104.410156 145.964844 103.390625 147.128906 102.847656 C 148.222656 102.257812 149.921875 102.351562 150.746094 102.710938 C 151.660156 103.019531 152.621094 103.230469 153.621094 103.359375 C 155.636719 103.589844 157.78125 103.378906 159.894531 102.917969 C 164.125 101.964844 168.296875 100.105469 172.042969 97.632812 C 175.761719 95.140625 179.28125 92.125 181.582031 88.355469 C 182.695312 86.476562 183.457031 84.394531 183.421875 82.304688 C 183.398438 80.214844 182.316406 78.25 180.667969 76.808594 C 179.023438 75.347656 176.941406 74.308594 174.757812 73.605469 C 173.835938 73.167969 172.535156 73.21875 171.40625 73.019531 L 167.917969 72.597656 C 163.273438 71.867188 158.558594 72.210938 153.914062 72.242188 L 146.980469 72.976562 C 144.667969 73.140625 142.425781 73.832031 140.152344 74.1875 C 122.121094 77.597656 104.929688 86.035156 92.082031 99.859375 Z M 91.667969 99.585938 "/>
<path fill-rule="nonzero" fill="#F5F2EB" fill-opacity="1" d="M 227.429688 103.3125 C 235.75 99.78125 243.566406 95.308594 250.886719 89.890625 C 258.203125 84.476562 264.75 78.292969 270.515625 71.347656 C 260.550781 72.054688 251.738281 73.078125 244.089844 74.410156 C 236.433594 75.746094 229.234375 77.882812 222.484375 80.828125 C 222.683594 85.066406 223.015625 89.183594 223.484375 93.1875 C 223.523438 93.660156 223.367188 94.023438 223.015625 94.277344 C 222.660156 94.53125 222.277344 94.589844 221.867188 94.453125 C 221.453125 94.316406 221.210938 94.011719 221.128906 93.542969 C 220.699219 89.851562 220.363281 85.964844 220.132812 81.886719 C 204.863281 89.144531 197.484375 96.621094 197.996094 104.316406 C 198.117188 106.117188 198.566406 107.394531 199.351562 108.136719 C 200.136719 108.886719 201.453125 109.355469 203.296875 109.550781 C 204.511719 109.710938 205.867188 109.710938 207.355469 109.550781 C 208.613281 109.394531 210.457031 108.984375 212.890625 108.316406 C 217.796875 107.019531 222.640625 105.351562 227.429688 103.3125 M 282.820312 68.171875 C 283.289062 68.132812 283.652344 68.296875 283.910156 68.671875 C 284.164062 69.046875 284.222656 69.433594 284.085938 69.847656 C 283.949219 70.261719 283.644531 70.488281 283.175781 70.527344 C 282.269531 70.566406 281.277344 70.625 280.203125 70.703125 C 279.121094 70.78125 277.980469 70.859375 276.789062 70.9375 C 275.589844 71.015625 274.582031 71.078125 273.753906 71.113281 C 266.375 80.335938 257.714844 88.28125 247.765625 94.953125 C 237.816406 101.625 227.195312 106.609375 215.890625 109.90625 C 203.492188 113.554688 196.507812 112.257812 194.9375 106.019531 C 194.503906 104.253906 194.601562 102.417969 195.230469 100.515625 C 195.859375 98.613281 196.792969 96.867188 198.027344 95.277344 C 199.265625 93.6875 200.765625 92.097656 202.53125 90.507812 C 204.296875 88.921875 205.925781 87.59375 207.414062 86.535156 C 208.90625 85.476562 210.398438 84.496094 211.890625 83.59375 C 214.480469 82.023438 217.1875 80.613281 220.011719 79.355469 C 219.460938 66.445312 220.167969 53.632812 222.132812 40.917969 C 222.210938 40.445312 222.464844 40.132812 222.894531 39.972656 C 223.328125 39.820312 223.71875 39.859375 224.074219 40.09375 C 224.425781 40.328125 224.566406 40.679688 224.484375 41.152344 C 222.601562 53.433594 221.894531 65.835938 222.367188 78.351562 C 226.136719 76.785156 230.078125 75.441406 234.199219 74.320312 C 238.320312 73.203125 242.636719 72.292969 247.148438 71.585938 C 251.664062 70.878906 255.773438 70.339844 259.480469 69.96875 C 263.1875 69.59375 267.535156 69.230469 272.519531 68.878906 C 272.558594 68.796875 272.675781 68.640625 272.871094 68.40625 C 273.066406 68.171875 273.207031 67.992188 273.285156 67.875 C 274.65625 66.074219 275.863281 64.355469 276.902344 62.726562 C 277.941406 61.097656 278.964844 59.300781 279.964844 57.339844 C 280.964844 55.378906 281.652344 53.464844 282.027344 51.601562 C 282.398438 49.738281 282.554688 47.855469 282.496094 45.949219 C 282.4375 44.046875 281.929688 42.183594 280.964844 40.359375 C 280.003906 38.53125 278.640625 36.816406 276.875 35.207031 C 274.753906 33.324219 272.332031 31.761719 269.605469 30.527344 C 266.878906 29.292969 264.140625 28.417969 261.394531 27.910156 C 258.644531 27.398438 255.753906 27.054688 252.710938 26.878906 C 249.667969 26.703125 246.792969 26.710938 244.089844 26.90625 C 240.988281 27.066406 237.972656 27.332031 235.054688 27.703125 C 232.128906 28.078125 229.097656 28.632812 225.957031 29.378906 C 222.816406 30.125 219.867188 31.019531 217.097656 32.058594 C 214.332031 33.097656 211.613281 34.394531 208.945312 35.941406 C 206.277344 37.496094 203.875 39.238281 201.734375 41.179688 C 199.597656 43.125 197.683594 45.402344 195.996094 48.011719 C 194.308594 50.621094 192.996094 53.476562 192.050781 56.574219 C 191.894531 57.007812 191.601562 57.25 191.171875 57.3125 C 190.738281 57.371094 190.363281 57.230469 190.050781 56.898438 C 189.738281 56.566406 189.65625 56.164062 189.816406 55.691406 C 191.1875 51.296875 193.328125 47.292969 196.230469 43.683594 C 199.136719 40.074219 202.492188 37.070312 206.296875 34.675781 C 210.101562 32.285156 214.261719 30.261719 218.777344 28.617188 C 223.289062 26.964844 227.929688 25.808594 232.699219 25.140625 C 237.464844 24.472656 242.164062 24.152344 246.792969 24.171875 C 251.425781 24.191406 255.859375 24.574219 260.097656 25.320312 C 262.023438 25.632812 263.875 26.054688 265.664062 26.582031 C 267.445312 27.113281 269.261719 27.800781 271.105469 28.644531 C 272.949219 29.488281 274.636719 30.441406 276.167969 31.5 C 277.699219 32.558594 279.121094 33.824219 280.4375 35.296875 C 281.75 36.765625 282.820312 38.367188 283.644531 40.09375 C 284.390625 41.742188 284.878906 43.425781 285.113281 45.15625 C 285.351562 46.882812 285.324219 48.582031 285.027344 50.246094 C 284.730469 51.914062 284.308594 53.535156 283.761719 55.105469 C 283.210938 56.675781 282.46875 58.28125 281.523438 59.929688 C 280.585938 61.578125 279.671875 63.070312 278.789062 64.40625 C 277.90625 65.738281 276.875 67.152344 275.699219 68.640625 C 276.246094 68.601562 277.34375 68.535156 278.996094 68.4375 C 280.640625 68.339844 281.917969 68.25 282.820312 68.171875 "/>
<path fill-rule="nonzero" fill="#F5F2EB" fill-opacity="1" d="M 316.3125 69.820312 C 316.628906 69.464844 316.992188 69.378906 317.402344 69.554688 C 317.8125 69.730469 318.058594 70.027344 318.136719 70.4375 C 318.214844 70.847656 318.097656 71.253906 317.785156 71.644531 C 317.039062 72.390625 316.085938 73.222656 314.929688 74.144531 C 313.769531 75.070312 312.4375 76.039062 310.925781 77.058594 C 309.417969 78.082031 307.90625 78.914062 306.394531 79.5625 C 304.882812 80.207031 303.449219 80.648438 302.097656 80.882812 C 300.742188 81.121094 299.566406 80.914062 298.5625 80.265625 C 297.566406 79.621094 296.90625 78.492188 296.59375 76.882812 C 296.28125 77.121094 295.898438 77.421875 295.445312 77.796875 C 294.996094 78.167969 294.59375 78.5 294.238281 78.796875 C 293.886719 79.089844 293.472656 79.40625 293.003906 79.738281 C 292.53125 80.070312 292.097656 80.367188 291.710938 80.621094 C 291.316406 80.875 290.882812 81.113281 290.414062 81.328125 C 289.941406 81.542969 289.480469 81.699219 289.03125 81.796875 C 288.578125 81.894531 288.105469 81.957031 287.617188 81.972656 C 287.125 81.996094 286.644531 81.925781 286.175781 81.769531 C 285.269531 81.535156 284.574219 81.0625 284.085938 80.355469 C 283.597656 79.648438 283.347656 78.882812 283.347656 78.058594 C 283.347656 77.234375 283.46875 76.371094 283.703125 75.46875 C 284.171875 73.78125 285.035156 72.332031 286.292969 71.113281 C 287.550781 69.898438 288.960938 69.035156 290.53125 68.523438 C 292.097656 68.015625 293.757812 67.828125 295.503906 67.964844 C 297.25 68.101562 298.847656 68.601562 300.304688 69.464844 C 301.007812 69.855469 301.105469 70.371094 300.597656 70.996094 C 300.125 71.625 299.574219 71.742188 298.945312 71.347656 C 295.964844 69.625 292.925781 69.683594 289.824219 71.527344 C 289.195312 71.917969 288.617188 72.347656 288.089844 72.820312 C 287.558594 73.292969 287.058594 73.851562 286.585938 74.5 C 286.117188 75.148438 285.890625 75.777344 285.910156 76.382812 C 285.929688 76.992188 286.191406 77.628906 286.703125 78.296875 C 287.253906 78.882812 287.882812 79.179688 288.585938 79.179688 C 289.292969 79.179688 290.019531 78.953125 290.765625 78.5 C 291.511719 78.050781 292.226562 77.550781 292.914062 77 C 293.601562 76.453125 294.347656 75.84375 295.152344 75.175781 C 295.957031 74.507812 296.59375 74.019531 297.0625 73.703125 C 297.457031 73.46875 297.828125 73.507812 298.183594 73.824219 C 298.535156 74.136719 298.714844 74.507812 298.714844 74.9375 C 298.789062 79.335938 301.753906 79.808594 307.601562 76.351562 C 310.738281 74.507812 313.566406 72.410156 316.078125 70.054688 C 316.15625 69.9375 316.234375 69.855469 316.3125 69.820312 "/>
<path fill-rule="nonzero" fill="#F5F2EB" fill-opacity="1" d="M 362.109375 69.820312 C 362.421875 69.464844 362.804688 69.328125 363.257812 69.40625 C 363.707031 69.488281 364.023438 69.710938 364.199219 70.085938 C 364.375 70.457031 364.324219 70.839844 364.050781 71.230469 C 363.070312 72.449219 361.914062 73.703125 360.578125 75 C 359.242188 76.292969 357.671875 77.578125 355.871094 78.855469 C 354.0625 80.132812 352.296875 81.128906 350.574219 81.855469 C 348.84375 82.585938 347.078125 82.855469 345.273438 82.679688 C 343.46875 82.503906 341.917969 81.730469 340.625 80.355469 C 339.917969 79.570312 338.964844 78.414062 337.769531 76.882812 C 336.574219 75.351562 335.699219 74.273438 335.148438 73.644531 C 334.796875 73.292969 334.460938 73.007812 334.148438 72.792969 C 333.832031 72.578125 333.558594 72.429688 333.324219 72.347656 C 333.089844 72.273438 332.835938 72.292969 332.558594 72.410156 C 332.285156 72.527344 332.058594 72.632812 331.882812 72.730469 C 331.707031 72.832031 331.476562 73.039062 331.207031 73.351562 C 330.929688 73.667969 330.734375 73.921875 330.617188 74.117188 C 330.5 74.3125 330.285156 74.636719 329.96875 75.085938 C 329.652344 75.539062 329.4375 75.84375 329.324219 76 C 329.125 76.3125 328.605469 77.304688 327.761719 78.972656 C 326.917969 80.640625 326.054688 82.054688 325.171875 83.210938 C 324.289062 84.371094 323.453125 85.007812 322.671875 85.125 C 322.199219 85.203125 321.828125 85.0625 321.550781 84.710938 C 321.277344 84.320312 321.070312 83.898438 320.933594 83.449219 C 320.796875 82.996094 320.746094 82.445312 320.789062 81.796875 C 320.828125 81.152344 320.867188 80.648438 320.902344 80.296875 C 320.945312 79.945312 321.042969 79.375 321.199219 78.589844 C 321.355469 77.804688 321.453125 77.355469 321.492188 77.234375 C 321.726562 75.746094 322.179688 73.617188 322.847656 70.847656 C 323.511719 68.082031 323.90625 66.425781 324.023438 65.875 C 324.140625 65.445312 324.414062 65.148438 324.847656 64.992188 C 325.277344 64.835938 325.671875 64.875 326.027344 65.109375 C 326.378906 65.34375 326.496094 65.699219 326.378906 66.167969 C 326.183594 67.035156 325.847656 68.457031 325.378906 70.4375 C 324.910156 72.421875 324.554688 73.9375 324.316406 75 C 323.847656 77.316406 323.550781 78.921875 323.433594 79.828125 L 323.433594 80.355469 C 323.75 79.765625 324.152344 79.140625 324.640625 78.472656 C 325.132812 77.804688 325.652344 77.097656 326.203125 76.351562 C 326.75 75.605469 327.144531 75.039062 327.378906 74.644531 C 327.5 74.488281 327.664062 74.253906 327.878906 73.9375 C 328.09375 73.625 328.28125 73.351562 328.4375 73.117188 C 328.59375 72.878906 328.78125 72.617188 329 72.320312 C 329.210938 72.027344 329.417969 71.761719 329.617188 71.527344 C 329.8125 71.289062 330.027344 71.054688 330.261719 70.820312 C 330.5 70.582031 330.742188 70.371094 331 70.171875 C 331.253906 69.976562 331.5 69.820312 331.734375 69.703125 C 332.363281 69.546875 332.914062 69.464844 333.382812 69.464844 C 333.855469 69.464844 334.367188 69.644531 334.914062 69.996094 C 335.464844 70.347656 335.945312 70.722656 336.355469 71.113281 C 336.769531 71.507812 337.21875 71.996094 337.710938 72.585938 C 338.203125 73.171875 338.613281 73.714844 338.945312 74.207031 C 339.28125 74.695312 339.632812 75.214844 340.003906 75.761719 C 340.378906 76.3125 340.703125 76.746094 340.976562 77.058594 C 342.347656 78.75 343.585938 79.738281 344.683594 80.03125 C 345.785156 80.324219 347.351562 80.101562 349.394531 79.355469 C 354.183594 77.589844 358.417969 74.410156 362.109375 69.820312 "/>
<path fill-rule="nonzero" fill="#F5F2EB" fill-opacity="1" d="M 373.175781 61.695312 C 373.449219 62.363281 373.253906 62.890625 372.585938 63.285156 L 368.40625 65.757812 C 368.132812 65.914062 367.835938 65.925781 367.523438 65.785156 C 367.210938 65.648438 366.996094 65.441406 366.878906 65.171875 C 366.601562 64.542969 366.796875 64.011719 367.464844 63.578125 L 371.644531 61.105469 C 371.917969 60.953125 372.210938 60.941406 372.527344 61.078125 C 372.84375 61.214844 373.058594 61.421875 373.175781 61.695312 M 369.234375 68.464844 C 369.429688 68.035156 369.742188 67.796875 370.171875 67.757812 C 370.605469 67.71875 370.96875 67.859375 371.261719 68.171875 C 371.554688 68.484375 371.625 68.878906 371.46875 69.347656 C 369.464844 74.375 368.503906 79.472656 368.582031 84.652344 C 368.582031 85.320312 368.25 85.65625 367.582031 85.65625 C 366.878906 85.65625 366.445312 85.339844 366.289062 84.710938 C 366.25 84.59375 366.230469 84.476562 366.230469 84.359375 C 366.148438 79.058594 367.152344 73.761719 369.234375 68.464844 "/>
<path fill-rule="nonzero" fill="#F5F2EB" fill-opacity="1" d="M 386.125 69.289062 C 385.574219 69.328125 384.976562 69.660156 384.332031 70.289062 C 383.683594 70.917969 383.121094 71.605469 382.652344 72.351562 C 383.476562 72.742188 384.476562 72.273438 385.65625 70.9375 C 386.4375 70.035156 386.65625 69.484375 386.300781 69.289062 Z M 404.785156 69.644531 C 405.136719 69.289062 405.511719 69.203125 405.902344 69.378906 C 406.292969 69.554688 406.539062 69.847656 406.640625 70.261719 C 406.734375 70.671875 406.628906 71.074219 406.316406 71.46875 C 398.230469 79.75 391.246094 83.179688 385.359375 81.769531 C 383.277344 81.296875 381.710938 80.386719 380.652344 79.03125 C 379.59375 77.675781 379.167969 76.167969 379.382812 74.5 C 379.601562 72.832031 380.375 71.230469 381.710938 69.699219 C 382.769531 68.5625 384.144531 67.640625 385.832031 66.933594 C 388.34375 65.914062 389.578125 66.542969 389.539062 68.820312 L 389.539062 68.9375 C 389.5 70.46875 388.578125 71.917969 386.773438 73.292969 C 384.96875 74.667969 383.339844 75.117188 381.886719 74.644531 C 381.730469 76.410156 382.476562 77.726562 384.125 78.589844 C 385.773438 79.453125 387.578125 79.710938 389.539062 79.355469 C 392.324219 78.847656 394.925781 77.757812 397.339844 76.089844 C 399.753906 74.421875 402.234375 72.273438 404.785156 69.644531 "/>
<path fill-rule="nonzero" fill="#F5F2EB" fill-opacity="1" d="M 439.574219 70.113281 C 439.769531 69.683594 440.09375 69.449219 440.542969 69.40625 C 440.996094 69.367188 441.367188 69.515625 441.660156 69.847656 C 441.957031 70.179688 441.984375 70.5625 441.75 70.996094 C 441.433594 71.703125 441.050781 72.460938 440.601562 73.261719 C 440.152344 74.066406 439.59375 75.011719 438.925781 76.089844 C 438.257812 77.167969 437.550781 78.167969 436.804688 79.089844 C 436.058594 80.011719 435.265625 80.914062 434.421875 81.796875 C 433.578125 82.679688 432.722656 83.378906 431.859375 83.886719 C 431 84.394531 430.125 84.730469 429.242188 84.886719 C 428.359375 85.046875 427.476562 84.898438 426.59375 84.445312 C 425.710938 83.996094 424.875 83.238281 424.089844 82.179688 C 423.539062 81.394531 423.148438 80.492188 422.914062 79.472656 C 421.542969 82.140625 419.96875 83.867188 418.203125 84.652344 C 417.265625 85.007812 416.351562 85.09375 415.46875 84.917969 C 414.585938 84.742188 413.78125 84.351562 413.054688 83.742188 C 412.328125 83.132812 411.769531 82.398438 411.378906 81.535156 C 410.90625 80.472656 410.582031 79.265625 410.40625 77.914062 C 410.230469 76.558594 410.21875 75.011719 410.375 73.261719 C 410.535156 71.515625 410.691406 70.09375 410.847656 68.996094 C 411.003906 67.898438 411.269531 66.355469 411.644531 64.375 C 412.015625 62.394531 412.238281 61.1875 412.320312 60.753906 C 412.59375 59.105469 412.90625 57.4375 413.261719 55.75 C 413.613281 54.0625 414.007812 52.304688 414.4375 50.480469 C 414.871094 48.65625 415.253906 47.058594 415.585938 45.683594 C 415.917969 44.3125 416.351562 42.5625 416.882812 40.445312 C 417.410156 38.328125 417.8125 36.699219 418.089844 35.558594 C 418.246094 34.972656 418.636719 34.726562 419.261719 34.824219 C 419.890625 34.921875 420.265625 35.246094 420.382812 35.796875 C 420.621094 37.089844 420.753906 38.308594 420.792969 39.445312 C 420.835938 40.582031 420.753906 41.730469 420.558594 42.890625 C 420.363281 44.046875 420.128906 45.105469 419.855469 46.066406 C 419.578125 47.03125 419.207031 48.238281 418.734375 49.6875 C 418.578125 50.082031 418.300781 50.316406 417.910156 50.394531 C 417.519531 50.472656 417.183594 50.394531 416.910156 50.160156 C 415.339844 56.871094 414.300781 62.65625 413.789062 67.523438 C 413.359375 71.371094 413.121094 73.722656 413.085938 74.589844 C 412.964844 80.082031 414.203125 82.671875 416.792969 82.355469 C 417.066406 82.316406 417.382812 82.238281 417.734375 82.121094 C 419.5 81.496094 421.207031 78.628906 422.855469 73.527344 C 423.050781 72.234375 423.445312 70.46875 424.03125 68.230469 C 424.621094 65.996094 424.972656 64.519531 425.09375 63.8125 C 426.738281 55.378906 428.210938 48.335938 429.507812 42.683594 C 429.625 42.210938 429.898438 41.910156 430.332031 41.769531 C 430.761719 41.632812 431.152344 41.683594 431.507812 41.917969 C 431.859375 42.15625 431.980469 42.507812 431.859375 42.976562 C 430.371094 49.492188 428.625 57.949219 426.625 68.347656 C 426.542969 68.78125 426.425781 69.328125 426.269531 69.996094 C 426.269531 70.15625 426.257812 70.261719 426.238281 70.320312 C 426.21875 70.378906 426.191406 70.46875 426.152344 70.582031 C 426.113281 70.703125 426.09375 70.78125 426.09375 70.820312 C 425.542969 73.214844 425.25 75 425.210938 76.175781 C 425.132812 78.6875 425.777344 80.453125 427.152344 81.472656 C 428.523438 82.496094 430.273438 82.179688 432.390625 80.535156 C 434.785156 78.492188 437.179688 75.019531 439.574219 70.113281 "/>
<path fill-rule="nonzero" fill="#F5F2EB" fill-opacity="1" d="M 475.890625 69.820312 C 476.203125 69.464844 476.566406 69.378906 476.980469 69.554688 C 477.390625 69.730469 477.636719 70.027344 477.714844 70.4375 C 477.792969 70.847656 477.675781 71.253906 477.363281 71.644531 C 476.613281 72.390625 475.664062 73.222656 474.507812 74.144531 C 473.347656 75.070312 472.015625 76.039062 470.503906 77.058594 C 468.996094 78.082031 467.480469 78.914062 465.972656 79.5625 C 464.460938 80.207031 463.027344 80.648438 461.675781 80.882812 C 460.320312 81.121094 459.144531 80.914062 458.140625 80.265625 C 457.144531 79.621094 456.484375 78.492188 456.171875 76.882812 C 455.855469 77.121094 455.476562 77.421875 455.023438 77.796875 C 454.570312 78.167969 454.171875 78.5 453.816406 78.796875 C 453.464844 79.089844 453.050781 79.40625 452.582031 79.738281 C 452.109375 80.070312 451.675781 80.367188 451.285156 80.621094 C 450.890625 80.875 450.460938 81.113281 449.992188 81.328125 C 449.519531 81.542969 449.058594 81.699219 448.609375 81.796875 C 448.15625 81.894531 447.683594 81.957031 447.195312 81.972656 C 446.703125 81.996094 446.222656 81.925781 445.753906 81.769531 C 444.847656 81.535156 444.152344 81.0625 443.664062 80.355469 C 443.171875 79.648438 442.925781 78.882812 442.925781 78.058594 C 442.925781 77.234375 443.046875 76.371094 443.28125 75.46875 C 443.75 73.78125 444.613281 72.332031 445.871094 71.113281 C 447.125 69.898438 448.539062 69.035156 450.109375 68.523438 C 451.675781 68.015625 453.335938 67.828125 455.082031 67.964844 C 456.828125 68.101562 458.425781 68.601562 459.878906 69.464844 C 460.585938 69.855469 460.683594 70.371094 460.175781 70.996094 C 459.703125 71.625 459.152344 71.742188 458.523438 71.347656 C 455.542969 69.625 452.503906 69.683594 449.402344 71.527344 C 448.773438 71.917969 448.195312 72.347656 447.664062 72.820312 C 447.136719 73.292969 446.636719 73.851562 446.164062 74.5 C 445.691406 75.148438 445.46875 75.777344 445.488281 76.382812 C 445.507812 76.992188 445.769531 77.628906 446.28125 78.296875 C 446.832031 78.882812 447.460938 79.179688 448.164062 79.179688 C 448.871094 79.179688 449.597656 78.953125 450.34375 78.5 C 451.089844 78.050781 451.804688 77.550781 452.492188 77 C 453.179688 76.453125 453.921875 75.84375 454.726562 75.175781 C 455.53125 74.507812 456.171875 74.019531 456.640625 73.703125 C 457.035156 73.46875 457.40625 73.507812 457.757812 73.824219 C 458.113281 74.136719 458.292969 74.507812 458.292969 74.9375 C 458.367188 79.335938 461.332031 79.808594 467.179688 76.351562 C 470.316406 74.507812 473.144531 72.410156 475.65625 70.054688 C 475.734375 69.9375 475.8125 69.855469 475.890625 69.820312 "/>
</svg>
